<svg xmlns="http://www.w3.org/2000/svg" xmlns:xlink="http://www.w3.org/1999/xlink" width="172" zoomAndPan="magnify" viewBox="0 0 129 48" height="64" preserveAspectRatio="xMidYMid meet" version="1.0"><defs><clipPath id="6a2f4d2e1b"><path d="M 1.316406 6.371094 L 36 6.371094 L 36 40.902344 L 1.316406 40.902344 Z M 1.316406 6.371094 " clip-rule="nonzero"/></clipPath></defs><path fill="#000000" d="M 40.667969 22.972656 C 40.667969 28.617188 44.265625 32.554688 49.25 32.554688 C 54.238281 32.554688 57.835938 28.617188 57.835938 22.972656 C 57.835938 17.328125 54.238281 13.390625 49.25 13.390625 C 44.265625 13.390625 40.667969 17.328125 40.667969 22.972656 Z M 54.546875 22.972656 C 54.546875 27.011719 52.359375 29.628906 49.25 29.628906 C 46.140625 29.628906 43.957031 27.011719 43.957031 22.972656 C 43.957031 18.933594 46.140625 16.316406 49.25 16.316406 C 52.359375 16.316406 54.546875 18.933594 54.546875 22.972656 Z M 54.546875 22.972656 " fill-opacity="1" fill-rule="nonzero"/><path fill="#000000" d="M 67.097656 32.554688 C 70.875 32.554688 73.035156 29.34375 73.035156 25.484375 C 73.035156 21.625 70.875 18.414062 67.097656 18.414062 C 65.351562 18.414062 64.066406 19.113281 63.21875 20.125 L 63.21875 18.671875 L 60.132812 18.671875 L 60.132812 36.929688 L 63.21875 36.929688 L 63.21875 30.84375 C 64.066406 31.855469 65.351562 32.554688 67.097656 32.554688 Z M 63.140625 25.097656 C 63.140625 22.53125 64.582031 21.132812 66.480469 21.132812 C 68.71875 21.132812 69.925781 22.894531 69.925781 25.484375 C 69.925781 28.074219 68.71875 29.835938 66.480469 29.835938 C 64.582031 29.835938 63.140625 28.410156 63.140625 25.898438 Z M 63.140625 25.097656 " fill-opacity="1" fill-rule="nonzero"/><path fill="#000000" d="M 81.382812 32.554688 C 84.082031 32.554688 86.214844 31.128906 87.164062 28.746094 L 84.515625 27.738281 C 84.105469 29.136719 82.898438 29.914062 81.382812 29.914062 C 79.402344 29.914062 78.015625 28.488281 77.785156 26.15625 L 87.242188 26.15625 L 87.242188 25.121094 C 87.242188 21.390625 85.160156 18.414062 81.253906 18.414062 C 77.347656 18.414062 74.828125 21.496094 74.828125 25.484375 C 74.828125 29.679688 77.527344 32.554688 81.382812 32.554688 Z M 81.226562 21.03125 C 83.179688 21.03125 84.105469 22.324219 84.132812 23.828125 L 77.9375 23.828125 C 78.402344 21.988281 79.632812 21.03125 81.226562 21.03125 Z M 81.226562 21.03125 " fill-opacity="1" fill-rule="nonzero"/><path fill="#000000" d="M 89.554688 32.269531 L 92.640625 32.269531 L 92.640625 24.292969 C 92.640625 22.351562 94.054688 21.316406 95.441406 21.316406 C 97.136719 21.316406 97.804688 22.53125 97.804688 24.214844 L 97.804688 32.269531 L 100.890625 32.269531 L 100.890625 23.308594 C 100.890625 20.382812 99.191406 18.414062 96.367188 18.414062 C 94.617188 18.414062 93.410156 19.21875 92.640625 20.125 L 92.640625 18.671875 L 89.554688 18.671875 Z M 89.554688 32.269531 " fill-opacity="1" fill-rule="nonzero"/><path fill="#000000" d="M 109.921875 13.675781 L 102.929688 32.269531 L 106.195312 32.269531 L 107.761719 28.023438 L 115.730469 28.023438 L 117.324219 32.269531 L 120.636719 32.269531 L 113.648438 13.675781 Z M 111.71875 17.351562 L 114.648438 25.121094 L 108.84375 25.121094 Z M 111.71875 17.351562 " fill-opacity="1" fill-rule="nonzero"/><path fill="#000000" d="M 125.933594 13.730469 L 122.644531 13.730469 L 122.644531 32.324219 L 125.933594 32.324219 Z M 125.933594 13.730469 " fill-opacity="1" fill-rule="nonzero"/><g clip-path="url(#6a2f4d2e1b)"><path fill="#000000" d="M 33.132812 20.503906 C 33.910156 18.152344 33.640625 15.578125 32.398438 13.4375 C 30.527344 10.15625 26.769531 8.46875 23.097656 9.265625 C 21.464844 7.410156 19.121094 6.355469 16.660156 6.371094 C 12.90625 6.363281 9.578125 8.796875 8.421875 12.394531 C 6.011719 12.890625 3.933594 14.414062 2.714844 16.566406 C 0.832031 19.839844 1.261719 23.964844 3.777344 26.769531 C 3 29.121094 3.269531 31.695312 4.511719 33.835938 C 6.378906 37.117188 10.140625 38.804688 13.808594 38.007812 C 15.441406 39.863281 17.789062 40.917969 20.25 40.902344 C 24.003906 40.910156 27.332031 38.472656 28.488281 34.875 C 30.898438 34.375 32.980469 32.855469 34.195312 30.699219 C 36.078125 27.429688 35.648438 23.308594 33.132812 20.503906 Z M 20.25 38.644531 C 18.75 38.648438 17.292969 38.117188 16.140625 37.148438 C 16.191406 37.117188 16.285156 37.066406 16.34375 37.03125 L 23.164062 33.0625 C 23.515625 32.859375 23.730469 32.488281 23.726562 32.082031 L 23.726562 22.386719 L 26.609375 24.066406 C 26.640625 24.082031 26.664062 24.113281 26.667969 24.144531 L 26.667969 32.171875 C 26.664062 35.742188 23.792969 38.636719 20.25 38.644531 Z M 6.453125 32.707031 C 5.703125 31.398438 5.429688 29.859375 5.6875 28.371094 C 5.738281 28.402344 5.828125 28.457031 5.890625 28.492188 L 12.714844 32.464844 C 13.058594 32.667969 13.488281 32.667969 13.835938 32.464844 L 22.164062 27.617188 L 22.164062 30.972656 C 22.167969 31.007812 22.152344 31.039062 22.125 31.0625 L 15.226562 35.074219 C 12.15625 36.859375 8.230469 35.796875 6.457031 32.707031 Z M 4.660156 17.699219 C 5.410156 16.386719 6.589844 15.382812 8 14.859375 C 8 14.921875 7.996094 15.023438 7.996094 15.097656 L 7.996094 23.042969 C 7.996094 23.445312 8.210938 23.820312 8.558594 24.019531 L 16.886719 28.863281 L 14.003906 30.542969 C 13.976562 30.5625 13.9375 30.566406 13.90625 30.550781 L 7.007812 26.535156 C 3.941406 24.746094 2.890625 20.792969 4.65625 17.699219 Z M 28.351562 23.253906 L 20.023438 18.40625 L 22.90625 16.730469 C 22.933594 16.710938 22.972656 16.707031 23.003906 16.722656 L 29.902344 20.734375 C 32.972656 22.523438 34.023438 26.480469 32.25 29.578125 C 31.5 30.886719 30.316406 31.890625 28.910156 32.410156 L 28.910156 24.230469 C 28.914062 23.828125 28.699219 23.453125 28.351562 23.253906 Z M 31.222656 18.902344 C 31.171875 18.871094 31.082031 18.816406 31.019531 18.777344 L 24.195312 14.808594 C 23.851562 14.605469 23.421875 14.605469 23.074219 14.808594 L 14.746094 19.65625 L 14.746094 16.300781 C 14.742188 16.265625 14.757812 16.230469 14.785156 16.210938 L 21.683594 12.199219 C 24.753906 10.414062 28.683594 11.476562 30.453125 14.574219 C 31.203125 15.882812 31.472656 17.414062 31.21875 18.902344 Z M 13.175781 24.882812 L 10.292969 23.203125 C 10.261719 23.1875 10.242188 23.160156 10.238281 23.125 L 10.238281 15.097656 C 10.238281 11.523438 13.117188 8.625 16.664062 8.628906 C 18.164062 8.628906 19.613281 9.160156 20.769531 10.125 C 20.714844 10.15625 20.625 10.207031 20.566406 10.242188 L 13.742188 14.214844 C 13.394531 14.414062 13.179688 14.785156 13.179688 15.191406 L 13.175781 24.878906 Z M 14.742188 21.480469 L 18.453125 19.320312 L 22.164062 21.476562 L 22.164062 25.796875 L 18.453125 27.953125 L 14.742188 25.796875 Z M 14.742188 21.480469 " fill-opacity="1" fill-rule="nonzero"/></g></svg>