<svg xmlns="http://www.w3.org/2000/svg" xmlns:xlink="http://www.w3.org/1999/xlink" width="172" zoomAndPan="magnify" viewBox="0 0 129 48" height="64" preserveAspectRatio="xMidYMid meet" version="1.0"><defs><clipPath id="8c91b351a3"><path d="M 18 17 L 35 17 L 35 36.953125 L 18 36.953125 Z M 18 17 " clip-rule="nonzero"/></clipPath><clipPath id="b3ba383fae"><path d="M 3 9.769531 L 33 9.769531 L 33 22 L 3 22 Z M 3 9.769531 " clip-rule="nonzero"/></clipPath><clipPath id="aafedea4e9"><path d="M 1.316406 18 L 17 18 L 17 32 L 1.316406 32 Z M 1.316406 18 " clip-rule="nonzero"/></clipPath><clipPath id="f2a3edf2ae"><path d="M 115 20 L 127.683594 20 L 127.683594 34 L 115 34 Z M 115 20 " clip-rule="nonzero"/></clipPath><clipPath id="b15f417980"><path d="M 1.316406 18 L 17 18 L 17 27 L 1.316406 27 Z M 1.316406 18 " clip-rule="nonzero"/></clipPath></defs><g clip-path="url(#8c91b351a3)"><path fill="#18bfff" d="M 33.746094 17.996094 C 34.0625 18.195312 34.1875 18.289062 34.308594 18.644531 C 34.316406 18.8125 34.320312 18.980469 34.320312 19.148438 C 34.320312 19.253906 34.324219 19.355469 34.324219 19.464844 C 34.324219 19.636719 34.324219 19.636719 34.324219 19.8125 C 34.328125 19.992188 34.328125 19.992188 34.328125 20.179688 C 34.328125 20.578125 34.332031 20.980469 34.332031 21.382812 C 34.332031 21.519531 34.332031 21.660156 34.335938 21.796875 C 34.335938 22.371094 34.335938 22.945312 34.339844 23.519531 C 34.339844 24.34375 34.34375 25.167969 34.347656 25.988281 C 34.351562 26.570312 34.355469 27.148438 34.355469 27.726562 C 34.355469 28.074219 34.355469 28.417969 34.359375 28.765625 C 34.363281 29.148438 34.363281 29.535156 34.363281 29.921875 C 34.363281 30.035156 34.363281 30.152344 34.367188 30.269531 C 34.359375 31.132812 34.359375 31.132812 34.09375 31.46875 C 33.886719 31.644531 33.738281 31.765625 33.488281 31.855469 C 33.421875 31.882812 33.355469 31.90625 33.285156 31.933594 C 33.214844 31.957031 33.144531 31.980469 33.070312 32.007812 C 32.992188 32.035156 32.917969 32.0625 32.839844 32.089844 C 32.675781 32.152344 32.511719 32.210938 32.347656 32.269531 C 32.082031 32.363281 31.816406 32.460938 31.554688 32.558594 C 31.28125 32.660156 31.003906 32.761719 30.730469 32.859375 C 29.90625 33.160156 29.085938 33.476562 28.269531 33.792969 C 27.878906 33.945312 27.484375 34.097656 27.09375 34.246094 C 27.015625 34.277344 26.933594 34.308594 26.851562 34.34375 C 25.882812 34.714844 24.917969 35.089844 23.949219 35.460938 C 23.75 35.535156 23.550781 35.613281 23.351562 35.6875 C 22.898438 35.863281 22.445312 36.035156 21.988281 36.210938 C 21.679688 36.328125 21.367188 36.449219 21.058594 36.570312 C 20.925781 36.621094 20.792969 36.675781 20.660156 36.726562 C 20.546875 36.769531 20.4375 36.8125 20.320312 36.859375 C 19.96875 36.960938 19.714844 37 19.351562 36.953125 C 19.109375 36.796875 19.015625 36.730469 18.882812 36.488281 C 18.8125 36.085938 18.820312 35.683594 18.824219 35.273438 C 18.824219 35.148438 18.820312 35.023438 18.820312 34.898438 C 18.816406 34.558594 18.820312 34.21875 18.820312 33.882812 C 18.820312 33.527344 18.820312 33.171875 18.820312 32.816406 C 18.820312 32.21875 18.820312 31.625 18.824219 31.027344 C 18.824219 30.339844 18.824219 29.652344 18.820312 28.960938 C 18.820312 28.371094 18.820312 27.777344 18.820312 27.1875 C 18.820312 26.832031 18.820312 26.480469 18.820312 26.128906 C 18.816406 25.796875 18.820312 25.464844 18.820312 25.132812 C 18.824219 24.949219 18.820312 24.769531 18.820312 24.589844 C 18.828125 23.804688 18.828125 23.804688 19.097656 23.433594 C 19.308594 23.296875 19.492188 23.179688 19.726562 23.089844 C 19.796875 23.0625 19.867188 23.035156 19.941406 23.003906 C 20.058594 22.964844 20.058594 22.964844 20.175781 22.917969 C 20.257812 22.886719 20.339844 22.855469 20.425781 22.824219 C 20.699219 22.71875 20.96875 22.617188 21.242188 22.515625 C 21.4375 22.441406 21.628906 22.367188 21.824219 22.296875 C 22.230469 22.140625 22.636719 21.988281 23.039062 21.832031 C 23.621094 21.613281 24.203125 21.390625 24.785156 21.167969 C 25.535156 20.878906 26.289062 20.589844 27.042969 20.300781 C 27.773438 20.023438 28.503906 19.738281 29.234375 19.457031 C 29.683594 19.28125 30.132812 19.109375 30.582031 18.9375 C 30.796875 18.855469 31.011719 18.769531 31.226562 18.6875 C 31.527344 18.570312 31.824219 18.453125 32.125 18.339844 C 32.214844 18.304688 32.300781 18.269531 32.394531 18.234375 C 32.859375 18.058594 33.238281 17.941406 33.746094 17.996094 Z M 33.746094 17.996094 " fill-opacity="1" fill-rule="nonzero"/></g><g clip-path="url(#b3ba383fae)"><path fill="#fcb400" d="M 17.773438 9.746094 C 17.886719 9.742188 18 9.738281 18.117188 9.738281 C 19.183594 9.785156 20.1875 10.292969 21.15625 10.691406 C 21.316406 10.757812 21.476562 10.824219 21.636719 10.890625 C 21.976562 11.027344 22.316406 11.167969 22.65625 11.308594 C 23.269531 11.558594 23.878906 11.808594 24.492188 12.058594 C 24.9375 12.242188 25.382812 12.421875 25.828125 12.605469 C 26.683594 12.953125 27.535156 13.304688 28.390625 13.648438 C 28.789062 13.808594 29.1875 13.96875 29.585938 14.128906 C 29.773438 14.207031 29.964844 14.285156 30.15625 14.359375 C 30.421875 14.464844 30.683594 14.574219 30.949219 14.679688 C 31.027344 14.710938 31.105469 14.742188 31.183594 14.773438 C 32.125 15.15625 32.125 15.15625 32.34375 15.59375 C 32.386719 15.964844 32.402344 16.164062 32.171875 16.464844 C 31.804688 16.800781 31.34375 16.949219 30.882812 17.125 C 30.777344 17.167969 30.667969 17.207031 30.558594 17.253906 C 30.230469 17.378906 29.90625 17.503906 29.582031 17.632812 C 29.152344 17.796875 28.726562 17.960938 28.300781 18.128906 C 27.703125 18.359375 27.105469 18.59375 26.507812 18.824219 C 25.40625 19.25 24.308594 19.675781 23.207031 20.109375 C 23.097656 20.15625 22.984375 20.199219 22.867188 20.246094 C 22.425781 20.417969 21.988281 20.589844 21.546875 20.765625 C 21.246094 20.886719 20.941406 21.003906 20.636719 21.125 C 20.550781 21.160156 20.460938 21.195312 20.371094 21.230469 C 19.527344 21.5625 18.742188 21.835938 17.824219 21.828125 C 17.753906 21.828125 17.683594 21.832031 17.613281 21.832031 C 16.523438 21.832031 15.5 21.351562 14.507812 20.949219 C 14.261719 20.851562 14.011719 20.75 13.765625 20.652344 C 13.699219 20.625 13.632812 20.597656 13.5625 20.570312 C 12.714844 20.234375 11.867188 19.902344 11.019531 19.570312 C 10.734375 19.457031 10.445312 19.347656 10.15625 19.234375 C 9.289062 18.894531 8.417969 18.554688 7.546875 18.214844 C 7.179688 18.074219 6.8125 17.929688 6.445312 17.785156 C 6.273438 17.71875 6.097656 17.652344 5.925781 17.585938 C 3.566406 16.675781 3.566406 16.675781 3.273438 16.238281 C 3.230469 15.878906 3.222656 15.671875 3.417969 15.359375 C 3.691406 15.085938 3.976562 14.953125 4.332031 14.8125 C 4.398438 14.785156 4.46875 14.757812 4.539062 14.730469 C 4.765625 14.636719 4.992188 14.546875 5.21875 14.453125 C 5.378906 14.390625 5.539062 14.324219 5.699219 14.257812 C 6.117188 14.085938 6.535156 13.917969 6.953125 13.75 C 7.335938 13.597656 7.714844 13.441406 8.09375 13.285156 C 8.613281 13.078125 9.128906 12.867188 9.648438 12.65625 C 10.425781 12.34375 11.203125 12.027344 11.976562 11.707031 C 12.074219 11.667969 12.167969 11.628906 12.269531 11.589844 C 12.835938 11.355469 12.835938 11.355469 13.402344 11.121094 C 16.722656 9.757812 16.722656 9.757812 17.773438 9.746094 Z M 17.773438 9.746094 " fill-opacity="1" fill-rule="nonzero"/></g><path fill="#333333" d="M 48.265625 15.027344 C 48.402344 15.027344 48.542969 15.027344 48.679688 15.027344 C 48.75 15.027344 48.824219 15.027344 48.898438 15.03125 C 49.132812 15.03125 49.363281 15.03125 49.597656 15.03125 C 49.753906 15.03125 49.910156 15.03125 50.066406 15.035156 C 50.453125 15.035156 50.839844 15.035156 51.226562 15.039062 C 51.570312 15.6875 51.84375 16.363281 52.117188 17.042969 C 52.167969 17.167969 52.21875 17.296875 52.269531 17.421875 C 52.40625 17.753906 52.539062 18.082031 52.671875 18.414062 C 52.90625 19 53.140625 19.582031 53.375 20.164062 C 53.402344 20.230469 53.429688 20.296875 53.457031 20.363281 C 53.871094 21.398438 54.292969 22.433594 54.71875 23.46875 C 54.761719 23.574219 54.761719 23.574219 54.804688 23.683594 C 54.925781 23.96875 55.042969 24.257812 55.160156 24.546875 C 55.65625 25.753906 56.152344 26.964844 56.644531 28.171875 C 56.800781 28.558594 56.957031 28.941406 57.117188 29.328125 C 57.273438 29.710938 57.429688 30.09375 57.585938 30.476562 C 57.644531 30.617188 57.703125 30.761719 57.761719 30.90625 C 57.84375 31.101562 57.921875 31.300781 58 31.5 C 58.046875 31.609375 58.09375 31.722656 58.140625 31.835938 C 58.238281 32.144531 58.238281 32.144531 58.238281 32.699219 C 57.066406 32.699219 55.894531 32.699219 54.683594 32.699219 C 54.347656 31.898438 54.023438 31.101562 53.722656 30.289062 C 53.679688 30.175781 53.636719 30.066406 53.59375 29.949219 C 53.53125 29.789062 53.53125 29.789062 53.472656 29.625 C 53.433594 29.53125 53.398438 29.433594 53.359375 29.335938 C 53.28125 29.09375 53.28125 29.09375 53.28125 28.816406 C 50.875 28.816406 48.46875 28.816406 45.992188 28.816406 C 45.535156 30.023438 45.535156 30.023438 45.078125 31.234375 C 45.019531 31.382812 44.960938 31.535156 44.90625 31.6875 C 44.875 31.765625 44.847656 31.84375 44.816406 31.925781 C 44.785156 32 44.757812 32.074219 44.730469 32.152344 C 44.703125 32.21875 44.679688 32.285156 44.652344 32.351562 C 44.589844 32.511719 44.589844 32.511719 44.496094 32.699219 C 43.324219 32.699219 42.152344 32.699219 40.945312 32.699219 C 40.832031 32.257812 40.898438 32.140625 41.066406 31.726562 C 41.089844 31.667969 41.113281 31.605469 41.140625 31.546875 C 41.222656 31.34375 41.304688 31.140625 41.386719 30.941406 C 41.445312 30.796875 41.503906 30.652344 41.5625 30.507812 C 41.722656 30.113281 41.882812 29.71875 42.046875 29.328125 C 42.214844 28.914062 42.382812 28.5 42.550781 28.085938 C 42.835938 27.390625 43.121094 26.695312 43.40625 26 C 43.800781 25.03125 44.195312 24.0625 44.589844 23.089844 C 44.898438 22.332031 45.203125 21.574219 45.511719 20.816406 C 45.546875 20.738281 45.578125 20.65625 45.609375 20.574219 C 46.867188 17.480469 46.867188 17.480469 47.476562 16.027344 C 47.515625 15.9375 47.554688 15.84375 47.59375 15.75 C 47.628906 15.667969 47.660156 15.585938 47.695312 15.503906 C 47.726562 15.433594 47.757812 15.363281 47.789062 15.289062 C 47.917969 15.011719 47.925781 15.039062 48.265625 15.027344 Z M 49.449219 19.476562 C 49.160156 20.019531 48.933594 20.566406 48.726562 21.144531 C 48.695312 21.234375 48.664062 21.320312 48.628906 21.410156 C 48.527344 21.6875 48.429688 21.960938 48.328125 22.238281 C 48.226562 22.515625 48.128906 22.789062 48.027344 23.066406 C 47.964844 23.238281 47.902344 23.40625 47.839844 23.578125 C 47.667969 24.058594 47.480469 24.527344 47.277344 24.996094 C 47.199219 25.234375 47.1875 25.421875 47.207031 25.671875 C 47.355469 25.820312 47.511719 25.773438 47.71875 25.777344 C 47.855469 25.777344 47.855469 25.777344 47.988281 25.777344 C 48.136719 25.777344 48.136719 25.777344 48.285156 25.777344 C 48.382812 25.777344 48.480469 25.777344 48.585938 25.777344 C 48.792969 25.777344 49.003906 25.777344 49.214844 25.777344 C 49.535156 25.773438 49.859375 25.777344 50.179688 25.777344 C 50.382812 25.777344 50.585938 25.777344 50.789062 25.777344 C 50.9375 25.777344 50.9375 25.777344 51.085938 25.777344 C 51.171875 25.777344 51.261719 25.777344 51.355469 25.777344 C 51.433594 25.777344 51.511719 25.777344 51.59375 25.773438 C 51.792969 25.777344 51.792969 25.777344 51.972656 25.671875 C 51.921875 25.238281 51.835938 24.859375 51.6875 24.449219 C 51.628906 24.289062 51.628906 24.289062 51.566406 24.121094 C 51.523438 24.003906 51.480469 23.886719 51.433594 23.769531 C 51.390625 23.648438 51.34375 23.527344 51.300781 23.40625 C 51.207031 23.15625 51.109375 22.902344 51.015625 22.648438 C 50.894531 22.324219 50.773438 22 50.65625 21.675781 C 50.5625 21.425781 50.46875 21.175781 50.375 20.929688 C 50.328125 20.808594 50.285156 20.6875 50.242188 20.570312 C 50.179688 20.402344 50.117188 20.234375 50.054688 20.070312 C 50.019531 19.976562 49.984375 19.878906 49.945312 19.78125 C 49.84375 19.550781 49.84375 19.550781 49.621094 19.492188 C 49.566406 19.484375 49.507812 19.480469 49.449219 19.476562 Z M 49.449219 19.476562 " fill-opacity="1" fill-rule="nonzero"/><path fill="#333333" d="M 97.777344 15.019531 C 97.847656 15.019531 97.914062 15.019531 97.984375 15.019531 C 98.191406 15.019531 98.398438 15.019531 98.605469 15.015625 C 98.734375 15.015625 98.867188 15.015625 99 15.015625 C 99.117188 15.015625 99.238281 15.015625 99.363281 15.015625 C 99.648438 15.039062 99.648438 15.039062 99.835938 15.222656 C 99.855469 15.453125 99.863281 15.675781 99.863281 15.90625 C 99.863281 15.976562 99.867188 16.046875 99.867188 16.121094 C 99.871094 16.351562 99.871094 16.585938 99.871094 16.820312 C 99.875 16.980469 99.875 17.140625 99.878906 17.304688 C 99.882812 17.726562 99.886719 18.152344 99.890625 18.578125 C 99.894531 19.011719 99.898438 19.445312 99.902344 19.878906 C 99.914062 20.730469 99.921875 21.582031 99.925781 22.433594 C 99.972656 22.382812 100.015625 22.332031 100.0625 22.28125 C 100.121094 22.214844 100.179688 22.148438 100.238281 22.078125 C 100.296875 22.011719 100.355469 21.945312 100.414062 21.878906 C 100.941406 21.304688 101.605469 20.949219 102.359375 20.769531 C 102.425781 20.753906 102.492188 20.738281 102.5625 20.71875 C 104.34375 20.441406 105.929688 20.8125 107.40625 21.824219 C 108.578125 22.726562 109.175781 24.191406 109.421875 25.601562 C 109.660156 27.632812 109.339844 29.65625 108.058594 31.3125 C 107.230469 32.25 105.902344 32.988281 104.628906 33.089844 C 103.140625 33.148438 101.882812 33.09375 100.675781 32.144531 C 100.40625 31.894531 100.40625 31.894531 100.207031 31.679688 C 100.113281 31.589844 100.023438 31.496094 99.925781 31.402344 C 99.921875 31.488281 99.917969 31.574219 99.910156 31.664062 C 99.902344 31.773438 99.894531 31.886719 99.886719 32 C 99.878906 32.109375 99.871094 32.21875 99.863281 32.332031 C 99.835938 32.605469 99.835938 32.605469 99.742188 32.699219 C 99.511719 32.707031 99.285156 32.707031 99.058594 32.707031 C 98.988281 32.707031 98.921875 32.707031 98.851562 32.707031 C 98.628906 32.707031 98.410156 32.707031 98.191406 32.703125 C 98.042969 32.703125 97.894531 32.703125 97.746094 32.703125 C 97.382812 32.703125 97.019531 32.699219 96.65625 32.699219 C 96.652344 30.410156 96.652344 28.121094 96.652344 25.832031 C 96.652344 24.769531 96.648438 23.707031 96.648438 22.644531 C 96.648438 21.71875 96.648438 20.792969 96.648438 19.867188 C 96.648438 19.375 96.648438 18.882812 96.644531 18.394531 C 96.644531 17.933594 96.644531 17.472656 96.644531 17.011719 C 96.644531 16.839844 96.644531 16.671875 96.644531 16.5 C 96.644531 16.269531 96.644531 16.039062 96.644531 15.808594 C 96.644531 15.742188 96.644531 15.671875 96.644531 15.601562 C 96.644531 14.820312 97.105469 15.023438 97.777344 15.019531 Z M 100.769531 24.449219 C 100.015625 25.25 99.792969 26.125 99.808594 27.199219 C 99.878906 28.078125 100.195312 28.726562 100.816406 29.355469 C 101.605469 30.019531 102.46875 30.183594 103.480469 30.109375 C 104.476562 29.917969 105.113281 29.421875 105.722656 28.628906 C 106.21875 27.789062 106.238281 26.652344 105.992188 25.730469 C 105.703125 24.90625 105.09375 24.285156 104.316406 23.890625 C 103.117188 23.398438 101.734375 23.589844 100.769531 24.449219 Z M 100.769531 24.449219 " fill-opacity="1" fill-rule="nonzero"/><g clip-path="url(#aafedea4e9)"><path fill="#f72a5f" d="M 3.875 18.496094 C 3.980469 18.539062 4.082031 18.582031 4.191406 18.625 C 4.472656 18.734375 4.75 18.847656 5.03125 18.960938 C 5.324219 19.078125 5.621094 19.195312 5.914062 19.3125 C 5.972656 19.335938 6.03125 19.359375 6.089844 19.382812 C 6.207031 19.429688 6.324219 19.476562 6.441406 19.523438 C 6.617188 19.59375 6.792969 19.664062 6.96875 19.734375 C 7.804688 20.066406 8.640625 20.394531 9.476562 20.714844 C 9.671875 20.789062 9.863281 20.863281 10.054688 20.933594 C 10.664062 21.167969 11.273438 21.402344 11.882812 21.636719 C 12.402344 21.832031 12.917969 22.03125 13.433594 22.230469 C 13.636719 22.308594 13.84375 22.386719 14.046875 22.464844 C 14.332031 22.570312 14.613281 22.679688 14.898438 22.789062 C 14.984375 22.824219 15.070312 22.855469 15.15625 22.886719 C 15.613281 23.066406 15.910156 23.207031 16.171875 23.636719 C 16.226562 23.828125 16.226562 23.828125 16.226562 24.007812 C 16.226562 24.066406 16.230469 24.125 16.230469 24.1875 C 16.117188 24.558594 15.839844 24.761719 15.507812 24.949219 C 15.265625 25.070312 15.019531 25.183594 14.769531 25.296875 C 14.574219 25.386719 14.382812 25.476562 14.1875 25.566406 C 14.085938 25.613281 13.980469 25.660156 13.875 25.707031 C 13.382812 25.9375 12.890625 26.171875 12.398438 26.410156 C 11.472656 26.855469 10.542969 27.289062 9.605469 27.71875 C 8.324219 28.300781 7.054688 28.914062 5.789062 29.53125 C 4.988281 29.921875 4.1875 30.304688 3.378906 30.675781 C 3.300781 30.710938 3.222656 30.746094 3.144531 30.785156 C 2.398438 31.121094 2.398438 31.121094 1.964844 31.035156 C 1.699219 30.886719 1.570312 30.8125 1.402344 30.570312 C 1.316406 30.191406 1.328125 29.8125 1.332031 29.421875 C 1.332031 29.25 1.332031 29.25 1.328125 29.070312 C 1.328125 28.75 1.328125 28.433594 1.332031 28.113281 C 1.332031 27.777344 1.332031 27.445312 1.332031 27.109375 C 1.332031 26.550781 1.332031 25.988281 1.335938 25.425781 C 1.339844 24.777344 1.339844 24.128906 1.335938 23.480469 C 1.335938 22.855469 1.335938 22.234375 1.335938 21.609375 C 1.335938 21.34375 1.335938 21.078125 1.335938 20.8125 C 1.335938 20.441406 1.339844 20.070312 1.339844 19.699219 C 1.339844 19.589844 1.339844 19.480469 1.339844 19.367188 C 1.347656 18.625 1.347656 18.625 1.625 18.253906 C 2.371094 17.757812 3.128906 18.195312 3.875 18.496094 Z M 3.875 18.496094 " fill-opacity="1" fill-rule="nonzero"/></g><path fill="#333333" d="M 90.578125 21.511719 C 90.875 21.777344 91.152344 22.050781 91.421875 22.34375 C 91.425781 22.257812 91.433594 22.171875 91.4375 22.082031 C 91.449219 21.917969 91.449219 21.917969 91.460938 21.746094 C 91.472656 21.582031 91.472656 21.582031 91.484375 21.414062 C 91.515625 21.140625 91.515625 21.140625 91.609375 21.046875 C 91.828125 21.039062 92.046875 21.035156 92.269531 21.035156 C 92.335938 21.035156 92.402344 21.035156 92.46875 21.035156 C 92.609375 21.035156 92.75 21.035156 92.886719 21.035156 C 93.101562 21.035156 93.316406 21.035156 93.53125 21.035156 C 93.667969 21.035156 93.804688 21.035156 93.9375 21.035156 C 94.003906 21.035156 94.070312 21.035156 94.136719 21.035156 C 94.589844 21.039062 94.589844 21.039062 94.691406 21.140625 C 94.703125 21.289062 94.703125 21.4375 94.703125 21.585938 C 94.707031 21.683594 94.707031 21.777344 94.707031 21.878906 C 94.707031 22.039062 94.707031 22.039062 94.703125 22.203125 C 94.707031 22.371094 94.707031 22.371094 94.707031 22.539062 C 94.707031 22.847656 94.707031 23.15625 94.707031 23.460938 C 94.707031 23.78125 94.707031 24.105469 94.707031 24.425781 C 94.707031 24.964844 94.707031 25.503906 94.707031 26.039062 C 94.703125 26.664062 94.703125 27.289062 94.707031 27.914062 C 94.707031 28.445312 94.707031 28.980469 94.707031 29.515625 C 94.707031 29.835938 94.707031 30.15625 94.707031 30.476562 C 94.707031 30.832031 94.707031 31.1875 94.703125 31.542969 C 94.707031 31.652344 94.707031 31.757812 94.707031 31.867188 C 94.707031 31.964844 94.707031 32.0625 94.703125 32.160156 C 94.703125 32.285156 94.703125 32.285156 94.703125 32.414062 C 94.691406 32.605469 94.691406 32.605469 94.597656 32.699219 C 94.378906 32.707031 94.160156 32.710938 93.9375 32.710938 C 93.875 32.710938 93.808594 32.710938 93.738281 32.710938 C 93.597656 32.710938 93.460938 32.710938 93.320312 32.710938 C 93.105469 32.710938 92.890625 32.710938 92.675781 32.710938 C 92.539062 32.710938 92.402344 32.710938 92.269531 32.710938 C 92.171875 32.710938 92.171875 32.710938 92.074219 32.710938 C 91.617188 32.707031 91.617188 32.707031 91.515625 32.605469 C 91.492188 32.402344 91.476562 32.203125 91.460938 32 C 91.453125 31.886719 91.445312 31.777344 91.4375 31.664062 C 91.433594 31.578125 91.425781 31.492188 91.421875 31.402344 C 91.351562 31.496094 91.277344 31.589844 91.207031 31.6875 C 90.574219 32.414062 89.648438 32.871094 88.710938 33.066406 C 87.539062 33.152344 86.335938 33.1875 85.25 32.699219 C 85.121094 32.640625 85.121094 32.640625 84.984375 32.578125 C 83.640625 31.917969 82.804688 30.851562 82.265625 29.488281 C 81.65625 27.628906 81.679688 25.5 82.5 23.707031 C 82.828125 23.089844 83.230469 22.535156 83.757812 22.066406 C 83.800781 22.023438 83.84375 21.980469 83.890625 21.933594 C 85.582031 20.367188 88.71875 20.109375 90.578125 21.511719 Z M 86.1875 24.449219 C 85.433594 25.25 85.210938 26.125 85.226562 27.199219 C 85.296875 28.078125 85.613281 28.726562 86.234375 29.355469 C 87.023438 30.019531 87.886719 30.183594 88.898438 30.109375 C 89.878906 29.921875 90.566406 29.4375 91.140625 28.628906 C 91.570312 27.792969 91.667969 26.847656 91.441406 25.9375 C 91.125 25.011719 90.613281 24.332031 89.726562 23.886719 C 88.53125 23.402344 87.152344 23.589844 86.1875 24.449219 Z M 86.1875 24.449219 " fill-opacity="1" fill-rule="nonzero"/><g clip-path="url(#f2a3edf2ae)"><path fill="#333333" d="M 125.652344 21.75 C 126.816406 22.683594 127.355469 24.0625 127.597656 25.484375 C 127.597656 26.15625 127.597656 26.828125 127.597656 27.519531 C 124.789062 27.550781 121.984375 27.582031 119.089844 27.613281 C 118.960938 28.132812 119.132812 28.441406 119.371094 28.90625 C 119.796875 29.589844 120.472656 29.914062 121.234375 30.136719 C 122.425781 30.382812 123.582031 30.078125 124.605469 29.460938 C 124.828125 29.292969 125.046875 29.117188 125.257812 28.929688 C 125.445312 28.816406 125.445312 28.816406 125.636719 28.820312 C 126.023438 29.003906 126.230469 29.40625 126.476562 29.738281 C 126.566406 29.859375 126.566406 29.859375 126.664062 29.980469 C 126.722656 30.058594 126.78125 30.136719 126.84375 30.21875 C 126.898438 30.289062 126.953125 30.363281 127.007812 30.4375 C 127.164062 30.730469 127.191406 30.890625 127.128906 31.21875 C 126.9375 31.40625 126.777344 31.53125 126.558594 31.675781 C 126.496094 31.714844 126.4375 31.753906 126.378906 31.792969 C 125.039062 32.671875 123.773438 33.125 122.152344 33.109375 C 122.042969 33.109375 121.929688 33.105469 121.816406 33.105469 C 120.0625 33.074219 118.550781 32.554688 117.289062 31.3125 C 116.042969 30 115.660156 28.289062 115.703125 26.539062 C 115.777344 24.855469 116.40625 23.21875 117.667969 22.050781 C 119.847656 20.253906 123.347656 20.105469 125.652344 21.75 Z M 119.507812 24.097656 C 119.277344 24.410156 119.09375 24.742188 118.996094 25.117188 C 119.023438 25.242188 119.054688 25.363281 119.089844 25.484375 C 119.820312 25.488281 120.550781 25.488281 121.28125 25.492188 C 121.53125 25.492188 121.777344 25.492188 122.027344 25.492188 C 122.382812 25.496094 122.742188 25.496094 123.097656 25.496094 C 123.210938 25.496094 123.320312 25.496094 123.4375 25.496094 C 123.539062 25.496094 123.644531 25.496094 123.75 25.496094 C 123.839844 25.496094 123.929688 25.496094 124.023438 25.496094 C 124.230469 25.507812 124.230469 25.507812 124.324219 25.394531 C 124.289062 24.695312 124.078125 24.285156 123.554688 23.804688 C 122.398438 22.894531 120.507812 23.011719 119.507812 24.097656 Z M 119.507812 24.097656 " fill-opacity="1" fill-rule="nonzero"/></g><path fill="#333333" d="M 75.824219 16.414062 C 75.953125 16.414062 76.085938 16.414062 76.214844 16.414062 C 76.28125 16.417969 76.351562 16.417969 76.421875 16.417969 C 76.640625 16.417969 76.859375 16.417969 77.078125 16.417969 C 77.226562 16.417969 77.375 16.421875 77.523438 16.421875 C 77.886719 16.421875 78.25 16.421875 78.613281 16.425781 C 78.726562 16.644531 78.722656 16.785156 78.726562 17.03125 C 78.730469 17.160156 78.730469 17.160156 78.734375 17.292969 C 78.734375 17.386719 78.738281 17.480469 78.738281 17.578125 C 78.738281 17.675781 78.742188 17.769531 78.742188 17.871094 C 78.75 18.179688 78.753906 18.484375 78.761719 18.792969 C 78.765625 19.003906 78.769531 19.210938 78.773438 19.417969 C 78.785156 19.933594 78.792969 20.445312 78.800781 20.957031 C 78.867188 20.957031 78.929688 20.960938 78.996094 20.960938 C 79.289062 20.972656 79.578125 20.984375 79.871094 20.996094 C 79.972656 21 80.074219 21.003906 80.179688 21.007812 C 80.324219 21.011719 80.324219 21.011719 80.472656 21.019531 C 80.5625 21.023438 80.652344 21.027344 80.742188 21.027344 C 80.953125 21.046875 80.953125 21.046875 81.046875 21.140625 C 81.054688 21.324219 81.058594 21.507812 81.058594 21.691406 C 81.058594 21.804688 81.058594 21.917969 81.058594 22.03125 C 81.058594 22.148438 81.058594 22.265625 81.058594 22.390625 C 81.058594 22.507812 81.058594 22.625 81.058594 22.746094 C 81.058594 22.859375 81.058594 22.96875 81.058594 23.085938 C 81.058594 23.1875 81.058594 23.292969 81.058594 23.398438 C 81.046875 23.636719 81.046875 23.636719 80.953125 23.730469 C 80.792969 23.742188 80.632812 23.753906 80.472656 23.757812 C 80.375 23.761719 80.277344 23.765625 80.179688 23.769531 C 80.078125 23.773438 79.976562 23.777344 79.871094 23.78125 C 79.71875 23.789062 79.71875 23.789062 79.5625 23.792969 C 79.308594 23.804688 79.054688 23.8125 78.800781 23.820312 C 78.792969 24.511719 78.78125 25.203125 78.777344 25.894531 C 78.773438 26.214844 78.773438 26.539062 78.765625 26.859375 C 78.761719 27.226562 78.757812 27.597656 78.757812 27.964844 C 78.753906 28.082031 78.75 28.195312 78.75 28.316406 C 78.726562 28.953125 78.726562 28.953125 79.019531 29.488281 C 79.308594 29.671875 79.511719 29.722656 79.855469 29.757812 C 80.035156 29.777344 80.214844 29.800781 80.390625 29.832031 C 80.605469 30.253906 80.5 30.847656 80.503906 31.3125 C 80.503906 31.433594 80.503906 31.554688 80.503906 31.679688 C 80.503906 31.792969 80.507812 31.910156 80.507812 32.027344 C 80.507812 32.132812 80.507812 32.242188 80.507812 32.351562 C 80.484375 32.605469 80.484375 32.605469 80.296875 32.789062 C 80.03125 32.808594 79.78125 32.816406 79.515625 32.8125 C 79.4375 32.8125 79.363281 32.8125 79.285156 32.8125 C 78.125 32.792969 77.125 32.636719 76.242188 31.84375 C 75.394531 30.921875 75.40625 29.753906 75.398438 28.582031 C 75.394531 28.441406 75.394531 28.304688 75.390625 28.167969 C 75.386719 27.808594 75.382812 27.449219 75.378906 27.089844 C 75.375 26.71875 75.371094 26.351562 75.367188 25.984375 C 75.359375 25.261719 75.351562 24.542969 75.34375 23.820312 C 75.253906 23.820312 75.253906 23.820312 75.164062 23.816406 C 74.898438 23.804688 74.632812 23.792969 74.367188 23.78125 C 74.273438 23.777344 74.183594 23.773438 74.085938 23.769531 C 73.996094 23.765625 73.910156 23.761719 73.820312 23.757812 C 73.738281 23.753906 73.65625 23.75 73.570312 23.75 C 73.378906 23.730469 73.378906 23.730469 73.285156 23.636719 C 73.277344 23.453125 73.273438 23.269531 73.273438 23.085938 C 73.273438 22.972656 73.273438 22.859375 73.273438 22.746094 C 73.273438 22.628906 73.273438 22.511719 73.273438 22.390625 C 73.273438 22.269531 73.273438 22.152344 73.273438 22.03125 C 73.273438 21.917969 73.273438 21.808594 73.273438 21.691406 C 73.273438 21.589844 73.273438 21.484375 73.273438 21.378906 C 73.285156 21.140625 73.285156 21.140625 73.378906 21.046875 C 73.527344 21.035156 73.671875 21.023438 73.820312 21.019531 C 73.90625 21.015625 73.996094 21.011719 74.085938 21.007812 C 74.179688 21.003906 74.273438 21 74.367188 20.996094 C 74.460938 20.992188 74.554688 20.988281 74.648438 20.984375 C 74.882812 20.972656 75.113281 20.964844 75.34375 20.957031 C 75.34375 20.871094 75.34375 20.871094 75.347656 20.789062 C 75.355469 20.214844 75.367188 19.640625 75.378906 19.066406 C 75.382812 18.851562 75.386719 18.636719 75.390625 18.421875 C 75.394531 18.113281 75.402344 17.804688 75.40625 17.496094 C 75.410156 17.351562 75.410156 17.351562 75.410156 17.203125 C 75.414062 17.117188 75.414062 17.027344 75.417969 16.933594 C 75.417969 16.855469 75.421875 16.777344 75.421875 16.695312 C 75.445312 16.390625 75.507812 16.425781 75.824219 16.414062 Z M 75.824219 16.414062 " fill-opacity="1" fill-rule="nonzero"/><path fill="#333333" d="M 111.699219 15.027344 C 111.765625 15.027344 111.828125 15.027344 111.894531 15.027344 C 112.027344 15.027344 112.164062 15.027344 112.296875 15.027344 C 112.503906 15.027344 112.710938 15.027344 112.921875 15.027344 C 113.050781 15.027344 113.183594 15.027344 113.3125 15.027344 C 113.433594 15.027344 113.550781 15.027344 113.675781 15.027344 C 113.949219 15.039062 113.949219 15.039062 114.042969 15.128906 C 114.050781 15.355469 114.054688 15.578125 114.054688 15.804688 C 114.054688 15.875 114.054688 15.945312 114.054688 16.019531 C 114.054688 16.261719 114.054688 16.503906 114.054688 16.742188 C 114.054688 16.914062 114.054688 17.085938 114.054688 17.261719 C 114.054688 17.726562 114.054688 18.195312 114.054688 18.664062 C 114.054688 19.15625 114.054688 19.644531 114.054688 20.132812 C 114.054688 20.957031 114.054688 21.777344 114.054688 22.597656 C 114.054688 23.550781 114.054688 24.5 114.054688 25.453125 C 114.054688 26.269531 114.054688 27.085938 114.054688 27.898438 C 114.054688 28.386719 114.054688 28.875 114.054688 29.363281 C 114.054688 29.820312 114.054688 30.277344 114.054688 30.738281 C 114.054688 30.90625 114.054688 31.074219 114.054688 31.242188 C 114.054688 31.472656 114.054688 31.703125 114.054688 31.933594 C 114.054688 32 114.054688 32.066406 114.054688 32.136719 C 114.054688 32.59375 114.054688 32.59375 113.949219 32.699219 C 113.726562 32.707031 113.511719 32.710938 113.289062 32.710938 C 113.222656 32.710938 113.15625 32.710938 113.089844 32.710938 C 112.949219 32.710938 112.808594 32.710938 112.667969 32.710938 C 112.453125 32.710938 112.238281 32.710938 112.023438 32.710938 C 111.890625 32.710938 111.753906 32.710938 111.617188 32.710938 C 111.519531 32.710938 111.519531 32.710938 111.421875 32.710938 C 110.96875 32.707031 110.96875 32.707031 110.863281 32.605469 C 110.855469 32.378906 110.851562 32.15625 110.851562 31.929688 C 110.851562 31.859375 110.851562 31.789062 110.851562 31.714844 C 110.851562 31.472656 110.851562 31.230469 110.855469 30.992188 C 110.855469 30.820312 110.855469 30.648438 110.855469 30.472656 C 110.855469 30.003906 110.855469 29.535156 110.855469 29.066406 C 110.855469 28.578125 110.855469 28.089844 110.855469 27.597656 C 110.855469 26.671875 110.855469 25.742188 110.859375 24.816406 C 110.859375 23.761719 110.859375 22.703125 110.859375 21.648438 C 110.859375 19.476562 110.863281 17.304688 110.863281 15.128906 C 111.140625 14.992188 111.390625 15.027344 111.699219 15.027344 Z M 111.699219 15.027344 " fill-opacity="1" fill-rule="nonzero"/><path fill="#333333" d="M 71.488281 20.675781 C 71.5625 20.675781 71.636719 20.675781 71.714844 20.675781 C 71.769531 20.675781 71.828125 20.675781 71.882812 20.679688 C 71.886719 21.152344 71.886719 21.621094 71.890625 22.09375 C 71.890625 22.257812 71.890625 22.417969 71.890625 22.578125 C 71.894531 22.808594 71.894531 23.039062 71.894531 23.269531 C 71.894531 23.34375 71.894531 23.414062 71.894531 23.488281 C 71.894531 23.660156 71.890625 23.835938 71.882812 24.007812 C 71.71875 24.171875 71.488281 24.132812 71.265625 24.152344 C 70.1875 24.253906 69.257812 24.449219 68.519531 25.300781 C 67.9375 26.222656 67.929688 27.308594 67.921875 28.359375 C 67.921875 28.542969 67.917969 28.730469 67.914062 28.914062 C 67.914062 29.171875 67.910156 29.429688 67.90625 29.6875 C 67.902344 30.140625 67.898438 30.59375 67.894531 31.050781 C 67.890625 31.289062 67.886719 31.53125 67.886719 31.773438 C 67.882812 31.882812 67.882812 31.988281 67.882812 32.101562 C 67.878906 32.242188 67.878906 32.242188 67.878906 32.390625 C 67.863281 32.605469 67.863281 32.605469 67.773438 32.699219 C 67.550781 32.707031 67.332031 32.710938 67.113281 32.710938 C 67.046875 32.710938 66.980469 32.710938 66.910156 32.710938 C 66.773438 32.710938 66.632812 32.710938 66.492188 32.710938 C 66.277344 32.710938 66.0625 32.710938 65.847656 32.710938 C 65.710938 32.710938 65.578125 32.710938 65.441406 32.710938 C 65.34375 32.710938 65.34375 32.710938 65.246094 32.710938 C 64.792969 32.707031 64.792969 32.707031 64.6875 32.605469 C 64.679688 32.457031 64.675781 32.308594 64.675781 32.160156 C 64.675781 32.0625 64.675781 31.96875 64.675781 31.867188 C 64.675781 31.761719 64.675781 31.652344 64.675781 31.542969 C 64.675781 31.433594 64.675781 31.320312 64.675781 31.207031 C 64.675781 30.898438 64.675781 30.589844 64.675781 30.285156 C 64.675781 29.964844 64.675781 29.644531 64.675781 29.320312 C 64.675781 28.78125 64.675781 28.246094 64.675781 27.707031 C 64.675781 27.082031 64.675781 26.457031 64.675781 25.832031 C 64.675781 25.300781 64.675781 24.765625 64.675781 24.230469 C 64.675781 23.910156 64.675781 23.589844 64.675781 23.269531 C 64.675781 22.914062 64.675781 22.558594 64.675781 22.203125 C 64.675781 22.09375 64.675781 21.988281 64.675781 21.878906 C 64.675781 21.78125 64.675781 21.6875 64.675781 21.585938 C 64.675781 21.5 64.675781 21.417969 64.675781 21.332031 C 64.6875 21.140625 64.6875 21.140625 64.78125 21.046875 C 65.003906 21.039062 65.222656 21.039062 65.445312 21.039062 C 65.542969 21.039062 65.542969 21.039062 65.644531 21.039062 C 65.855469 21.039062 66.070312 21.042969 66.28125 21.042969 C 66.425781 21.042969 66.570312 21.042969 66.714844 21.042969 C 67.066406 21.042969 67.417969 21.046875 67.773438 21.046875 C 67.878906 21.261719 67.882812 21.398438 67.894531 21.636719 C 67.898438 21.714844 67.902344 21.792969 67.90625 21.875 C 67.910156 21.957031 67.914062 22.039062 67.917969 22.121094 C 67.921875 22.207031 67.925781 22.289062 67.929688 22.375 C 67.941406 22.578125 67.949219 22.785156 67.957031 22.988281 C 67.992188 22.929688 68.023438 22.875 68.054688 22.8125 C 68.628906 21.8125 69.296875 21.152344 70.417969 20.792969 C 70.777344 20.703125 71.117188 20.671875 71.488281 20.675781 Z M 71.488281 20.675781 " fill-opacity="1" fill-rule="nonzero"/><g clip-path="url(#b15f417980)"><path fill="#ba1e45" d="M 3.875 18.496094 C 3.980469 18.539062 4.082031 18.582031 4.191406 18.625 C 4.472656 18.734375 4.75 18.847656 5.03125 18.960938 C 5.324219 19.078125 5.621094 19.195312 5.914062 19.3125 C 5.972656 19.335938 6.03125 19.359375 6.089844 19.382812 C 6.207031 19.429688 6.324219 19.476562 6.441406 19.523438 C 6.617188 19.59375 6.792969 19.664062 6.96875 19.734375 C 7.804688 20.066406 8.640625 20.394531 9.476562 20.714844 C 9.671875 20.789062 9.863281 20.863281 10.054688 20.933594 C 10.664062 21.167969 11.273438 21.402344 11.882812 21.636719 C 12.402344 21.832031 12.917969 22.03125 13.433594 22.230469 C 13.636719 22.308594 13.84375 22.386719 14.046875 22.464844 C 14.332031 22.570312 14.613281 22.679688 14.898438 22.789062 C 14.984375 22.824219 15.070312 22.855469 15.15625 22.886719 C 15.613281 23.066406 15.910156 23.207031 16.171875 23.636719 C 16.226562 23.828125 16.226562 23.828125 16.226562 24.007812 C 16.226562 24.066406 16.230469 24.125 16.230469 24.1875 C 16.113281 24.570312 15.832031 24.769531 15.492188 24.957031 C 15.234375 25.085938 14.976562 25.207031 14.710938 25.324219 C 14.519531 25.414062 14.328125 25.5 14.132812 25.589844 C 13.988281 25.65625 13.988281 25.65625 13.839844 25.722656 C 13.570312 25.847656 13.300781 25.980469 13.03125 26.113281 C 12.910156 26.171875 12.910156 26.171875 12.789062 26.234375 C 12.636719 26.308594 12.484375 26.382812 12.335938 26.460938 C 12.128906 26.558594 12.128906 26.558594 11.777344 26.6875 C 11.386719 26.546875 11.101562 26.257812 10.792969 25.988281 C 10.675781 25.886719 10.554688 25.785156 10.4375 25.683594 C 10.351562 25.609375 10.351562 25.609375 10.261719 25.535156 C 10.039062 25.34375 9.8125 25.160156 9.582031 24.976562 C 9.128906 24.613281 8.6875 24.238281 8.246094 23.863281 C 7.914062 23.582031 7.582031 23.308594 7.246094 23.035156 C 6.792969 22.671875 6.351562 22.296875 5.90625 21.921875 C 5.578125 21.640625 5.246094 21.363281 4.910156 21.09375 C 4.457031 20.730469 4.015625 20.355469 3.574219 19.980469 C 3.148438 19.621094 2.71875 19.269531 2.28125 18.925781 C 2.039062 18.71875 1.8125 18.5 1.589844 18.273438 C 2.398438 17.785156 3.070312 18.171875 3.875 18.496094 Z M 3.875 18.496094 " fill-opacity="1" fill-rule="nonzero"/></g><path fill="#333333" d="M 59.359375 21.046875 C 60.375 21.046875 61.394531 21.046875 62.445312 21.046875 C 62.558594 21.277344 62.546875 21.429688 62.550781 21.6875 C 62.550781 21.78125 62.550781 21.878906 62.550781 21.976562 C 62.550781 22.082031 62.550781 22.1875 62.550781 22.296875 C 62.550781 22.40625 62.550781 22.519531 62.550781 22.632812 C 62.550781 22.9375 62.550781 23.242188 62.550781 23.546875 C 62.550781 23.863281 62.550781 24.179688 62.550781 24.5 C 62.550781 25.03125 62.550781 25.566406 62.550781 26.101562 C 62.546875 26.71875 62.550781 27.335938 62.550781 27.953125 C 62.550781 28.484375 62.550781 29.015625 62.550781 29.542969 C 62.550781 29.863281 62.550781 30.179688 62.550781 30.496094 C 62.550781 30.847656 62.550781 31.203125 62.550781 31.554688 C 62.550781 31.660156 62.550781 31.765625 62.550781 31.875 C 62.550781 31.96875 62.550781 32.066406 62.550781 32.164062 C 62.546875 32.246094 62.546875 32.332031 62.546875 32.417969 C 62.535156 32.605469 62.535156 32.605469 62.445312 32.699219 C 62.214844 32.707031 61.988281 32.707031 61.757812 32.707031 C 61.691406 32.707031 61.621094 32.707031 61.550781 32.707031 C 61.332031 32.707031 61.113281 32.707031 60.894531 32.703125 C 60.746094 32.703125 60.597656 32.703125 60.449219 32.703125 C 60.085938 32.703125 59.722656 32.699219 59.359375 32.699219 C 59.242188 32.46875 59.253906 32.320312 59.253906 32.0625 C 59.253906 31.96875 59.253906 31.875 59.253906 31.777344 C 59.253906 31.671875 59.253906 31.566406 59.253906 31.460938 C 59.253906 31.351562 59.253906 31.238281 59.253906 31.128906 C 59.253906 30.824219 59.253906 30.523438 59.253906 30.222656 C 59.253906 29.90625 59.253906 29.59375 59.253906 29.277344 C 59.253906 28.75 59.253906 28.21875 59.253906 27.691406 C 59.253906 27.078125 59.253906 26.464844 59.253906 25.851562 C 59.253906 25.328125 59.253906 24.804688 59.253906 24.277344 C 59.253906 23.964844 59.253906 23.648438 59.253906 23.335938 C 59.253906 22.984375 59.253906 22.636719 59.253906 22.285156 C 59.253906 22.183594 59.253906 22.078125 59.253906 21.96875 C 59.253906 21.875 59.253906 21.78125 59.253906 21.683594 C 59.253906 21.597656 59.253906 21.515625 59.253906 21.429688 C 59.265625 21.234375 59.265625 21.234375 59.359375 21.046875 Z M 59.359375 21.046875 " fill-opacity="1" fill-rule="nonzero"/><path fill="#333333" d="M 62.265625 15.519531 C 62.738281 15.957031 62.839844 16.394531 62.871094 17.027344 C 62.851562 17.585938 62.742188 17.957031 62.351562 18.367188 C 61.832031 18.824219 61.386719 18.949219 60.695312 18.941406 C 60.171875 18.890625 59.726562 18.636719 59.359375 18.273438 C 58.933594 17.707031 58.90625 17.113281 58.984375 16.425781 C 59.152344 15.882812 59.554688 15.542969 60.011719 15.222656 C 60.804688 14.875 61.585938 15.015625 62.265625 15.519531 Z M 62.265625 15.519531 " fill-opacity="1" fill-rule="nonzero"/></svg>