<svg xmlns="http://www.w3.org/2000/svg" xmlns:xlink="http://www.w3.org/1999/xlink" width="172" zoomAndPan="magnify" viewBox="0 0 129 48" height="64" preserveAspectRatio="xMidYMid meet" version="1.0"><defs><clipPath id="c55d1ca736"><path d="M 19 0 L 110 0 L 110 47.019531 L 19 47.019531 Z M 19 0 " clip-rule="nonzero"/></clipPath></defs><g clip-path="url(#c55d1ca736)"><path fill="#ea4b71" d="M 99.804688 18.808594 C 99.285156 18.808594 98.769531 18.765625 98.261719 18.679688 C 97.75 18.597656 97.25 18.472656 96.757812 18.304688 C 96.269531 18.136719 95.796875 17.929688 95.339844 17.683594 C 94.882812 17.4375 94.453125 17.15625 94.042969 16.839844 C 93.632812 16.523438 93.25 16.175781 92.898438 15.792969 C 92.546875 15.414062 92.230469 15.007812 91.945312 14.574219 C 91.660156 14.144531 91.414062 13.691406 91.203125 13.21875 C 90.992188 12.742188 90.824219 12.257812 90.691406 11.753906 L 79.917969 11.753906 C 79.359375 11.753906 78.820312 11.851562 78.296875 12.042969 C 77.773438 12.234375 77.300781 12.507812 76.875 12.867188 C 76.453125 13.226562 76.101562 13.648438 75.828125 14.132812 C 75.550781 14.617188 75.367188 15.136719 75.277344 15.683594 L 74.890625 18.007812 C 74.714844 19.070312 74.363281 20.078125 73.835938 21.019531 C 73.3125 21.964844 72.644531 22.796875 71.835938 23.511719 C 72.644531 24.226562 73.3125 25.054688 73.839844 26 C 74.363281 26.945312 74.714844 27.953125 74.890625 29.015625 L 75.277344 31.335938 C 75.367188 31.886719 75.550781 32.402344 75.828125 32.886719 C 76.101562 33.371094 76.453125 33.792969 76.875 34.152344 C 77.300781 34.511719 77.773438 34.785156 78.296875 34.980469 C 78.820312 35.171875 79.359375 35.265625 79.917969 35.265625 L 81.289062 35.265625 C 81.429688 34.714844 81.621094 34.183594 81.859375 33.667969 C 82.097656 33.152344 82.382812 32.664062 82.707031 32.199219 C 83.035156 31.738281 83.402344 31.304688 83.804688 30.910156 C 84.210938 30.511719 84.648438 30.152344 85.117188 29.835938 C 85.589844 29.515625 86.082031 29.242188 86.601562 29.011719 C 87.121094 28.785156 87.65625 28.605469 88.210938 28.472656 C 88.761719 28.339844 89.320312 28.257812 89.886719 28.226562 C 90.453125 28.195312 91.019531 28.21875 91.582031 28.289062 C 92.144531 28.359375 92.695312 28.480469 93.238281 28.652344 C 93.777344 28.824219 94.300781 29.042969 94.800781 29.308594 C 95.300781 29.574219 95.777344 29.882812 96.222656 30.234375 C 96.667969 30.585938 97.078125 30.976562 97.453125 31.402344 C 97.828125 31.828125 98.164062 32.28125 98.457031 32.769531 C 98.746094 33.253906 98.996094 33.761719 99.195312 34.292969 C 99.394531 34.824219 99.546875 35.371094 99.648438 35.925781 C 99.753906 36.484375 99.804688 37.046875 99.804688 37.617188 C 99.804688 38.183594 99.753906 38.75 99.652344 39.308594 C 99.550781 39.867188 99.402344 40.414062 99.203125 40.945312 C 99 41.476562 98.753906 41.984375 98.464844 42.472656 C 98.171875 42.960938 97.835938 43.417969 97.460938 43.84375 C 97.085938 44.269531 96.675781 44.660156 96.230469 45.011719 C 95.785156 45.367188 95.308594 45.675781 94.808594 45.941406 C 94.304688 46.207031 93.785156 46.425781 93.242188 46.597656 C 92.699219 46.769531 92.148438 46.890625 91.585938 46.964844 C 91.019531 47.035156 90.453125 47.054688 89.886719 47.023438 C 89.320312 46.992188 88.757812 46.914062 88.207031 46.78125 C 87.65625 46.648438 87.117188 46.464844 86.597656 46.238281 C 86.078125 46.007812 85.582031 45.730469 85.113281 45.414062 C 84.644531 45.09375 84.207031 44.734375 83.800781 44.335938 C 83.394531 43.9375 83.03125 43.503906 82.703125 43.039062 C 82.378906 42.574219 82.09375 42.082031 81.855469 41.566406 C 81.621094 41.050781 81.429688 40.519531 81.289062 39.96875 L 79.917969 39.96875 C 79.363281 39.96875 78.816406 39.917969 78.273438 39.824219 C 77.730469 39.726562 77.199219 39.582031 76.679688 39.394531 C 76.160156 39.203125 75.664062 38.96875 75.183594 38.691406 C 74.707031 38.414062 74.257812 38.097656 73.835938 37.738281 C 73.414062 37.382812 73.027344 36.992188 72.675781 36.566406 C 72.324219 36.140625 72.011719 35.6875 71.738281 35.207031 C 71.464844 34.726562 71.238281 34.226562 71.050781 33.707031 C 70.867188 33.1875 70.730469 32.652344 70.640625 32.109375 L 70.253906 29.789062 C 70.164062 29.242188 69.980469 28.726562 69.703125 28.242188 C 69.429688 27.757812 69.078125 27.335938 68.65625 26.976562 C 68.230469 26.613281 67.753906 26.339844 67.234375 26.148438 C 66.710938 25.957031 66.171875 25.859375 65.613281 25.859375 L 61.890625 25.859375 C 61.761719 26.363281 61.589844 26.851562 61.382812 27.324219 C 61.171875 27.796875 60.925781 28.25 60.640625 28.683594 C 60.355469 29.117188 60.035156 29.523438 59.683594 29.902344 C 59.332031 30.28125 58.953125 30.628906 58.542969 30.949219 C 58.132812 31.265625 57.699219 31.546875 57.246094 31.792969 C 56.789062 32.039062 56.316406 32.246094 55.824219 32.410156 C 55.335938 32.578125 54.835938 32.707031 54.324219 32.789062 C 53.8125 32.875 53.300781 32.917969 52.78125 32.917969 C 52.265625 32.917969 51.75 32.875 51.238281 32.789062 C 50.726562 32.707031 50.226562 32.578125 49.738281 32.410156 C 49.246094 32.246094 48.773438 32.039062 48.316406 31.792969 C 47.863281 31.546875 47.429688 31.265625 47.019531 30.949219 C 46.609375 30.628906 46.230469 30.28125 45.878906 29.902344 C 45.527344 29.523438 45.207031 29.117188 44.921875 28.683594 C 44.640625 28.25 44.390625 27.796875 44.183594 27.324219 C 43.972656 26.851562 43.800781 26.363281 43.671875 25.859375 L 38.378906 25.859375 C 38.238281 26.410156 38.046875 26.941406 37.808594 27.457031 C 37.570312 27.972656 37.289062 28.460938 36.960938 28.925781 C 36.632812 29.390625 36.269531 29.820312 35.863281 30.21875 C 35.457031 30.617188 35.019531 30.972656 34.550781 31.292969 C 34.082031 31.609375 33.585938 31.882812 33.066406 32.113281 C 32.546875 32.34375 32.011719 32.523438 31.460938 32.65625 C 30.910156 32.785156 30.347656 32.867188 29.78125 32.898438 C 29.214844 32.929688 28.652344 32.910156 28.085938 32.835938 C 27.523438 32.765625 26.972656 32.644531 26.433594 32.472656 C 25.890625 32.300781 25.371094 32.082031 24.867188 31.816406 C 24.367188 31.550781 23.894531 31.242188 23.449219 30.890625 C 23 30.539062 22.589844 30.152344 22.214844 29.726562 C 21.839844 29.300781 21.507812 28.84375 21.214844 28.359375 C 20.921875 27.871094 20.675781 27.363281 20.472656 26.832031 C 20.273438 26.300781 20.121094 25.757812 20.019531 25.199219 C 19.917969 24.640625 19.867188 24.078125 19.867188 23.511719 C 19.863281 22.941406 19.914062 22.378906 20.015625 21.820312 C 20.117188 21.257812 20.265625 20.714844 20.46875 20.183594 C 20.667969 19.648438 20.914062 19.140625 21.207031 18.652344 C 21.5 18.164062 21.832031 17.707031 22.207031 17.28125 C 22.582031 16.855469 22.992188 16.464844 23.441406 16.113281 C 23.886719 15.761719 24.359375 15.453125 24.863281 15.183594 C 25.363281 14.917969 25.886719 14.699219 26.425781 14.527344 C 26.96875 14.355469 27.523438 14.234375 28.085938 14.164062 C 28.648438 14.089844 29.214844 14.070312 29.78125 14.101562 C 30.351562 14.132812 30.910156 14.214844 31.460938 14.347656 C 32.015625 14.480469 32.550781 14.660156 33.070312 14.890625 C 33.589844 15.121094 34.085938 15.394531 34.554688 15.714844 C 35.027344 16.035156 35.464844 16.390625 35.867188 16.792969 C 36.273438 17.191406 36.640625 17.621094 36.964844 18.085938 C 37.292969 18.550781 37.574219 19.042969 37.8125 19.558594 C 38.050781 20.074219 38.238281 20.609375 38.378906 21.160156 L 43.671875 21.160156 C 43.800781 20.65625 43.972656 20.171875 44.183594 19.695312 C 44.390625 19.222656 44.640625 18.769531 44.921875 18.335938 C 45.207031 17.90625 45.527344 17.5 45.878906 17.117188 C 46.230469 16.738281 46.609375 16.390625 47.019531 16.074219 C 47.429688 15.753906 47.863281 15.472656 48.316406 15.230469 C 48.773438 14.984375 49.246094 14.777344 49.738281 14.609375 C 50.226562 14.441406 50.726562 14.316406 51.238281 14.230469 C 51.75 14.144531 52.265625 14.101562 52.78125 14.101562 C 53.300781 14.101562 53.8125 14.144531 54.324219 14.230469 C 54.835938 14.316406 55.335938 14.441406 55.824219 14.609375 C 56.316406 14.777344 56.789062 14.984375 57.246094 15.230469 C 57.699219 15.472656 58.132812 15.753906 58.542969 16.074219 C 58.953125 16.390625 59.332031 16.738281 59.683594 17.117188 C 60.035156 17.5 60.355469 17.90625 60.640625 18.335938 C 60.925781 18.769531 61.171875 19.222656 61.382812 19.695312 C 61.589844 20.171875 61.761719 20.65625 61.890625 21.160156 L 65.613281 21.160156 C 66.171875 21.160156 66.710938 21.0625 67.234375 20.871094 C 67.753906 20.679688 68.230469 20.40625 68.65625 20.046875 C 69.078125 19.6875 69.429688 19.265625 69.703125 18.78125 C 69.980469 18.296875 70.164062 17.777344 70.253906 17.230469 L 70.640625 14.910156 C 70.730469 14.363281 70.867188 13.832031 71.050781 13.3125 C 71.238281 12.789062 71.464844 12.289062 71.738281 11.808594 C 72.011719 11.332031 72.324219 10.878906 72.675781 10.453125 C 73.03125 10.027344 73.417969 9.636719 73.839844 9.28125 C 74.257812 8.921875 74.707031 8.605469 75.1875 8.328125 C 75.664062 8.050781 76.160156 7.816406 76.679688 7.628906 C 77.199219 7.4375 77.730469 7.292969 78.273438 7.199219 C 78.816406 7.101562 79.363281 7.054688 79.917969 7.054688 L 90.691406 7.054688 C 90.835938 6.503906 91.027344 5.972656 91.265625 5.457031 C 91.503906 4.941406 91.785156 4.453125 92.113281 3.988281 C 92.4375 3.523438 92.804688 3.09375 93.210938 2.695312 C 93.617188 2.296875 94.054688 1.941406 94.523438 1.621094 C 94.992188 1.304688 95.488281 1.03125 96.007812 0.800781 C 96.527344 0.570312 97.0625 0.390625 97.613281 0.257812 C 98.164062 0.128906 98.722656 0.046875 99.292969 0.015625 C 99.859375 -0.015625 100.421875 0.00390625 100.984375 0.078125 C 101.546875 0.148438 102.101562 0.269531 102.640625 0.441406 C 103.183594 0.613281 103.703125 0.832031 104.207031 1.097656 C 104.707031 1.363281 105.179688 1.671875 105.625 2.023438 C 106.070312 2.375 106.480469 2.761719 106.855469 3.1875 C 107.234375 3.613281 107.566406 4.070312 107.859375 4.554688 C 108.152344 5.042969 108.398438 5.550781 108.597656 6.082031 C 108.800781 6.613281 108.953125 7.15625 109.054688 7.714844 C 109.15625 8.273438 109.207031 8.835938 109.207031 9.402344 C 109.207031 10.023438 109.148438 10.632812 109.027344 11.238281 C 108.90625 11.84375 108.726562 12.433594 108.492188 13.003906 C 108.253906 13.574219 107.964844 14.117188 107.621094 14.628906 C 107.28125 15.140625 106.890625 15.617188 106.453125 16.054688 C 106.015625 16.492188 105.542969 16.878906 105.027344 17.222656 C 104.515625 17.566406 103.972656 17.855469 103.402344 18.09375 C 102.832031 18.328125 102.242188 18.507812 101.636719 18.628906 C 101.03125 18.746094 100.421875 18.808594 99.804688 18.808594 M 99.804688 14.105469 C 100.113281 14.105469 100.417969 14.078125 100.722656 14.015625 C 101.023438 13.957031 101.316406 13.867188 101.601562 13.75 C 101.890625 13.628906 102.160156 13.484375 102.417969 13.3125 C 102.671875 13.144531 102.910156 12.949219 103.128906 12.730469 C 103.347656 12.511719 103.542969 12.273438 103.714844 12.015625 C 103.886719 11.761719 104.03125 11.488281 104.148438 11.203125 C 104.265625 10.917969 104.355469 10.625 104.417969 10.320312 C 104.476562 10.019531 104.507812 9.714844 104.507812 9.402344 C 104.507812 9.09375 104.476562 8.789062 104.417969 8.488281 C 104.355469 8.183594 104.265625 7.890625 104.148438 7.605469 C 104.03125 7.320312 103.886719 7.046875 103.714844 6.792969 C 103.542969 6.535156 103.347656 6.296875 103.128906 6.078125 C 102.910156 5.859375 102.671875 5.664062 102.417969 5.492188 C 102.160156 5.324219 101.890625 5.175781 101.601562 5.058594 C 101.316406 4.941406 101.023438 4.851562 100.722656 4.792969 C 100.417969 4.730469 100.113281 4.703125 99.804688 4.703125 C 99.496094 4.703125 99.1875 4.730469 98.886719 4.792969 C 98.582031 4.851562 98.289062 4.941406 98.003906 5.058594 C 97.71875 5.179688 97.449219 5.324219 97.191406 5.496094 C 96.933594 5.667969 96.699219 5.863281 96.480469 6.078125 C 96.261719 6.296875 96.066406 6.535156 95.894531 6.792969 C 95.722656 7.050781 95.578125 7.320312 95.460938 7.605469 C 95.34375 7.890625 95.253906 8.183594 95.195312 8.488281 C 95.132812 8.789062 95.101562 9.09375 95.101562 9.402344 C 95.101562 9.710938 95.132812 10.019531 95.195312 10.320312 C 95.253906 10.625 95.34375 10.917969 95.460938 11.203125 C 95.578125 11.488281 95.722656 11.757812 95.894531 12.015625 C 96.066406 12.273438 96.261719 12.511719 96.480469 12.726562 C 96.699219 12.945312 96.933594 13.140625 97.191406 13.3125 C 97.449219 13.484375 97.71875 13.628906 98.003906 13.746094 C 98.289062 13.867188 98.582031 13.957031 98.886719 14.015625 C 99.1875 14.074219 99.496094 14.105469 99.804688 14.105469 M 29.273438 28.210938 C 29.582031 28.210938 29.886719 28.183594 30.191406 28.121094 C 30.492188 28.0625 30.789062 27.972656 31.074219 27.855469 C 31.359375 27.738281 31.628906 27.59375 31.886719 27.421875 C 32.144531 27.25 32.382812 27.054688 32.601562 26.835938 C 32.816406 26.617188 33.011719 26.378906 33.183594 26.125 C 33.355469 25.867188 33.5 25.59375 33.621094 25.308594 C 33.738281 25.023438 33.828125 24.730469 33.886719 24.429688 C 33.949219 24.125 33.976562 23.820312 33.976562 23.511719 C 33.976562 23.203125 33.949219 22.894531 33.886719 22.59375 C 33.828125 22.289062 33.738281 21.996094 33.621094 21.710938 C 33.5 21.425781 33.355469 21.152344 33.183594 20.898438 C 33.011719 20.640625 32.816406 20.402344 32.601562 20.183594 C 32.382812 19.964844 32.144531 19.769531 31.886719 19.597656 C 31.628906 19.429688 31.359375 19.285156 31.074219 19.164062 C 30.789062 19.046875 30.492188 18.957031 30.191406 18.898438 C 29.886719 18.835938 29.582031 18.808594 29.273438 18.808594 C 28.964844 18.808594 28.660156 18.839844 28.355469 18.898438 C 28.054688 18.960938 27.757812 19.046875 27.472656 19.167969 C 27.1875 19.285156 26.917969 19.429688 26.664062 19.601562 C 26.40625 19.773438 26.167969 19.96875 25.949219 20.1875 C 25.730469 20.40625 25.539062 20.640625 25.367188 20.898438 C 25.195312 21.15625 25.050781 21.425781 24.933594 21.710938 C 24.8125 21.996094 24.722656 22.289062 24.664062 22.59375 C 24.605469 22.894531 24.574219 23.203125 24.574219 23.511719 C 24.574219 23.820312 24.605469 24.125 24.664062 24.425781 C 24.722656 24.730469 24.8125 25.023438 24.933594 25.308594 C 25.050781 25.59375 25.195312 25.863281 25.367188 26.121094 C 25.539062 26.378906 25.730469 26.617188 25.949219 26.832031 C 26.167969 27.050781 26.40625 27.246094 26.664062 27.417969 C 26.917969 27.589844 27.1875 27.734375 27.472656 27.851562 C 27.757812 27.972656 28.054688 28.0625 28.355469 28.121094 C 28.660156 28.183594 28.964844 28.210938 29.273438 28.210938 M 57.484375 23.511719 C 57.484375 23.820312 57.457031 24.125 57.394531 24.429688 C 57.335938 24.730469 57.246094 25.023438 57.128906 25.3125 C 57.011719 25.597656 56.867188 25.867188 56.695312 26.125 C 56.523438 26.382812 56.328125 26.617188 56.109375 26.835938 C 55.890625 27.054688 55.652344 27.25 55.394531 27.421875 C 55.140625 27.59375 54.867188 27.738281 54.582031 27.855469 C 54.296875 27.976562 54.003906 28.066406 53.699219 28.125 C 53.398438 28.183594 53.09375 28.214844 52.78125 28.214844 C 52.472656 28.214844 52.167969 28.183594 51.867188 28.125 C 51.5625 28.066406 51.269531 27.976562 50.984375 27.855469 C 50.699219 27.738281 50.425781 27.59375 50.167969 27.421875 C 49.914062 27.25 49.675781 27.054688 49.457031 26.835938 C 49.238281 26.617188 49.042969 26.382812 48.871094 26.125 C 48.699219 25.867188 48.554688 25.597656 48.4375 25.3125 C 48.320312 25.023438 48.230469 24.730469 48.171875 24.429688 C 48.109375 24.125 48.082031 23.820312 48.082031 23.511719 C 48.082031 23.203125 48.113281 22.894531 48.171875 22.59375 C 48.230469 22.289062 48.320312 21.996094 48.441406 21.710938 C 48.558594 21.425781 48.703125 21.15625 48.875 20.898438 C 49.046875 20.644531 49.242188 20.40625 49.460938 20.1875 C 49.675781 19.96875 49.914062 19.773438 50.171875 19.601562 C 50.429688 19.433594 50.699219 19.285156 50.984375 19.167969 C 51.269531 19.050781 51.5625 18.960938 51.867188 18.902344 C 52.167969 18.839844 52.472656 18.8125 52.78125 18.8125 C 53.089844 18.8125 53.398438 18.839844 53.699219 18.902344 C 54.003906 18.960938 54.296875 19.050781 54.582031 19.167969 C 54.867188 19.285156 55.136719 19.433594 55.394531 19.601562 C 55.652344 19.773438 55.886719 19.96875 56.105469 20.1875 C 56.324219 20.40625 56.519531 20.644531 56.691406 20.898438 C 56.863281 21.15625 57.007812 21.425781 57.125 21.710938 C 57.246094 21.996094 57.332031 22.289062 57.394531 22.59375 C 57.453125 22.894531 57.484375 23.203125 57.484375 23.511719 M 95.101562 37.617188 C 95.101562 37.925781 95.070312 38.230469 95.011719 38.535156 C 94.949219 38.835938 94.863281 39.128906 94.742188 39.414062 C 94.625 39.699219 94.480469 39.972656 94.308594 40.230469 C 94.136719 40.484375 93.941406 40.722656 93.722656 40.941406 C 93.507812 41.160156 93.269531 41.355469 93.011719 41.527344 C 92.753906 41.699219 92.484375 41.84375 92.199219 41.960938 C 91.914062 42.078125 91.621094 42.167969 91.316406 42.226562 C 91.015625 42.289062 90.707031 42.320312 90.398438 42.320312 C 90.089844 42.320312 89.785156 42.289062 89.480469 42.226562 C 89.179688 42.167969 88.886719 42.078125 88.601562 41.960938 C 88.316406 41.84375 88.042969 41.699219 87.789062 41.527344 C 87.53125 41.355469 87.292969 41.160156 87.074219 40.941406 C 86.855469 40.722656 86.660156 40.484375 86.488281 40.230469 C 86.316406 39.972656 86.171875 39.699219 86.054688 39.414062 C 85.9375 39.128906 85.847656 38.835938 85.789062 38.535156 C 85.726562 38.230469 85.699219 37.925781 85.699219 37.617188 C 85.699219 37.308594 85.726562 37 85.789062 36.699219 C 85.847656 36.394531 85.9375 36.101562 86.054688 35.816406 C 86.171875 35.53125 86.316406 35.261719 86.488281 35.003906 C 86.660156 34.746094 86.855469 34.511719 87.074219 34.292969 C 87.292969 34.074219 87.53125 33.878906 87.785156 33.707031 C 88.042969 33.535156 88.316406 33.390625 88.601562 33.273438 C 88.886719 33.152344 89.179688 33.066406 89.480469 33.003906 C 89.785156 32.945312 90.089844 32.914062 90.398438 32.914062 C 90.707031 32.914062 91.015625 32.945312 91.316406 33.003906 C 91.621094 33.066406 91.914062 33.152344 92.199219 33.273438 C 92.484375 33.390625 92.753906 33.535156 93.011719 33.707031 C 93.269531 33.878906 93.507812 34.074219 93.722656 34.292969 C 93.941406 34.511719 94.136719 34.746094 94.308594 35.003906 C 94.480469 35.261719 94.625 35.53125 94.742188 35.816406 C 94.863281 36.101562 94.949219 36.394531 95.011719 36.699219 C 95.070312 37 95.101562 37.308594 95.101562 37.617188 " fill-opacity="1" fill-rule="evenodd"/></g></svg>