<svg xmlns="http://www.w3.org/2000/svg" xmlns:xlink="http://www.w3.org/1999/xlink" width="98" zoomAndPan="magnify" viewBox="0 0 73.5 73.499996" height="98" preserveAspectRatio="xMidYMid meet" version="1.0"><defs><clipPath id="81a798865a"><path d="M 21.902344 21.902344 L 50.953125 21.902344 L 50.953125 50.953125 L 21.902344 50.953125 Z M 21.902344 21.902344 " clip-rule="nonzero"/></clipPath></defs><g clip-path="url(#81a798865a)"><path fill="#000000" d="M 51.09375 36.496094 C 51.09375 37.457031 51 38.40625 50.8125 39.34375 C 50.625 40.285156 50.347656 41.195312 49.980469 42.082031 C 49.613281 42.96875 49.164062 43.808594 48.632812 44.605469 C 48.101562 45.402344 47.496094 46.140625 46.816406 46.816406 C 46.140625 47.496094 45.402344 48.101562 44.605469 48.632812 C 43.808594 49.164062 42.96875 49.613281 42.082031 49.980469 C 41.195312 50.347656 40.285156 50.625 39.34375 50.8125 C 38.40625 51 37.457031 51.09375 36.496094 51.09375 C 35.539062 51.09375 34.589844 51 33.648438 50.8125 C 32.710938 50.625 31.796875 50.347656 30.910156 49.980469 C 30.027344 49.613281 29.183594 49.164062 28.386719 48.632812 C 27.589844 48.101562 26.855469 47.496094 26.175781 46.816406 C 25.5 46.140625 24.894531 45.402344 24.359375 44.605469 C 23.828125 43.808594 23.378906 42.96875 23.011719 42.082031 C 22.644531 41.195312 22.367188 40.285156 22.179688 39.34375 C 21.996094 38.40625 21.902344 37.457031 21.902344 36.496094 C 21.902344 35.539062 21.996094 34.589844 22.179688 33.648438 C 22.367188 32.710938 22.644531 31.796875 23.011719 30.910156 C 23.378906 30.027344 23.828125 29.183594 24.359375 28.386719 C 24.894531 27.589844 25.5 26.855469 26.175781 26.175781 C 26.855469 25.5 27.589844 24.894531 28.386719 24.359375 C 29.183594 23.828125 30.027344 23.378906 30.910156 23.011719 C 31.796875 22.644531 32.710938 22.367188 33.648438 22.179688 C 34.589844 21.996094 35.539062 21.902344 36.496094 21.902344 C 37.457031 21.902344 38.40625 21.996094 39.34375 22.179688 C 40.285156 22.367188 41.195312 22.644531 42.082031 23.011719 C 42.96875 23.378906 43.808594 23.828125 44.605469 24.359375 C 45.402344 24.894531 46.140625 25.5 46.816406 26.175781 C 47.496094 26.855469 48.101562 27.589844 48.632812 28.386719 C 49.164062 29.183594 49.613281 30.027344 49.980469 30.910156 C 50.347656 31.796875 50.625 32.710938 50.8125 33.648438 C 51 34.589844 51.09375 35.539062 51.09375 36.496094 Z M 51.09375 36.496094 " fill-opacity="1" fill-rule="nonzero"/></g><path fill="#cdbe78" d="M 29.902344 43.367188 L 32.902344 43.367188 L 32.902344 33.648438 L 29.902344 33.648438 Z M 29.902344 43.367188 " fill-opacity="1" fill-rule="nonzero"/><path fill="#cdbe78" d="M 29.628906 30.546875 C 29.628906 31.507812 30.402344 32.28125 31.402344 32.28125 C 32.355469 32.28125 33.128906 31.507812 33.128906 30.546875 C 33.128906 29.589844 32.355469 28.769531 31.402344 28.769531 C 30.402344 28.769531 29.628906 29.589844 29.628906 30.546875 Z M 29.628906 30.546875 " fill-opacity="1" fill-rule="nonzero"/><path fill="#cdbe78" d="M 41.179688 43.367188 L 44.222656 43.367188 L 44.222656 38.027344 C 44.222656 35.429688 43.632812 33.375 40.585938 33.375 C 39.132812 33.375 38.132812 34.199219 37.722656 34.972656 L 37.675781 34.972656 L 37.675781 33.648438 L 34.8125 33.648438 L 34.8125 43.367188 L 37.8125 43.367188 L 37.8125 38.578125 C 37.8125 37.300781 38.039062 36.066406 39.632812 36.066406 C 41.179688 36.066406 41.179688 37.527344 41.179688 38.621094 Z M 41.179688 43.367188 " fill-opacity="1" fill-rule="nonzero"/></svg>