<svg xmlns="http://www.w3.org/2000/svg" xmlns:xlink="http://www.w3.org/1999/xlink" width="98" zoomAndPan="magnify" viewBox="0 0 73.5 73.499996" height="98" preserveAspectRatio="xMidYMid meet" version="1.0"><defs><clipPath id="686b9d905e"><path d="M 0 0 L 73.003906 0 L 73.003906 73.003906 L 0 73.003906 Z M 0 0 " clip-rule="nonzero"/></clipPath></defs><g clip-path="url(#686b9d905e)"><path fill="#191a23" d="M 73.003906 36.5 C 73.003906 37.695312 72.945312 38.890625 72.828125 40.078125 C 72.710938 41.269531 72.535156 42.449219 72.300781 43.621094 C 72.070312 44.796875 71.777344 45.953125 71.429688 47.097656 C 71.085938 48.242188 70.683594 49.367188 70.226562 50.46875 C 69.765625 51.574219 69.257812 52.652344 68.691406 53.707031 C 68.128906 54.761719 67.515625 55.785156 66.851562 56.78125 C 66.1875 57.773438 65.476562 58.734375 64.71875 59.65625 C 63.960938 60.582031 63.15625 61.46875 62.3125 62.3125 C 61.46875 63.15625 60.582031 63.960938 59.65625 64.71875 C 58.734375 65.476562 57.773438 66.1875 56.78125 66.851562 C 55.785156 67.515625 54.761719 68.128906 53.707031 68.691406 C 52.652344 69.257812 51.574219 69.765625 50.46875 70.226562 C 49.367188 70.683594 48.242188 71.085938 47.097656 71.429688 C 45.953125 71.777344 44.796875 72.070312 43.621094 72.300781 C 42.449219 72.535156 41.269531 72.710938 40.078125 72.828125 C 38.890625 72.945312 37.695312 73.003906 36.5 73.003906 C 35.304688 73.003906 34.113281 72.945312 32.925781 72.828125 C 31.734375 72.710938 30.554688 72.535156 29.378906 72.300781 C 28.207031 72.070312 27.050781 71.777344 25.90625 71.429688 C 24.761719 71.085938 23.636719 70.683594 22.53125 70.226562 C 21.429688 69.765625 20.347656 69.257812 19.292969 68.691406 C 18.242188 68.128906 17.214844 67.515625 16.222656 66.851562 C 15.226562 66.1875 14.269531 65.476562 13.34375 64.71875 C 12.421875 63.960938 11.535156 63.15625 10.691406 62.3125 C 9.847656 61.46875 9.042969 60.582031 8.285156 59.65625 C 7.527344 58.734375 6.816406 57.773438 6.152344 56.78125 C 5.488281 55.785156 4.875 54.761719 4.308594 53.707031 C 3.746094 52.652344 3.234375 51.574219 2.777344 50.46875 C 2.320312 49.367188 1.917969 48.242188 1.570312 47.097656 C 1.226562 45.953125 0.933594 44.796875 0.703125 43.621094 C 0.46875 42.449219 0.292969 41.269531 0.175781 40.078125 C 0.0585938 38.890625 0 37.695312 0 36.5 C 0 35.304688 0.0585938 34.113281 0.175781 32.925781 C 0.292969 31.734375 0.46875 30.554688 0.703125 29.378906 C 0.933594 28.207031 1.226562 27.050781 1.570312 25.90625 C 1.917969 24.761719 2.320312 23.636719 2.777344 22.53125 C 3.234375 21.429688 3.746094 20.347656 4.308594 19.292969 C 4.875 18.242188 5.488281 17.214844 6.152344 16.222656 C 6.816406 15.226562 7.527344 14.269531 8.285156 13.34375 C 9.042969 12.421875 9.847656 11.535156 10.691406 10.691406 C 11.535156 9.847656 12.421875 9.042969 13.34375 8.285156 C 14.269531 7.527344 15.226562 6.816406 16.222656 6.152344 C 17.214844 5.488281 18.242188 4.875 19.292969 4.308594 C 20.347656 3.746094 21.429688 3.234375 22.53125 2.777344 C 23.636719 2.320312 24.761719 1.917969 25.90625 1.570312 C 27.050781 1.226562 28.207031 0.933594 29.378906 0.703125 C 30.554688 0.46875 31.734375 0.292969 32.925781 0.175781 C 34.113281 0.0585938 35.304688 0 36.5 0 C 37.695312 0 38.890625 0.0585938 40.078125 0.175781 C 41.269531 0.292969 42.449219 0.46875 43.621094 0.703125 C 44.796875 0.933594 45.953125 1.226562 47.097656 1.570312 C 48.242188 1.917969 49.367188 2.320312 50.46875 2.777344 C 51.574219 3.234375 52.652344 3.746094 53.707031 4.308594 C 54.761719 4.875 55.785156 5.488281 56.78125 6.152344 C 57.773438 6.816406 58.734375 7.527344 59.65625 8.285156 C 60.582031 9.042969 61.46875 9.847656 62.3125 10.691406 C 63.15625 11.535156 63.960938 12.421875 64.71875 13.34375 C 65.476562 14.269531 66.1875 15.226562 66.851562 16.222656 C 67.515625 17.214844 68.128906 18.242188 68.691406 19.292969 C 69.257812 20.347656 69.765625 21.429688 70.226562 22.53125 C 70.683594 23.636719 71.085938 24.761719 71.429688 25.90625 C 71.777344 27.050781 72.070312 28.207031 72.300781 29.378906 C 72.535156 30.554688 72.710938 31.734375 72.828125 32.925781 C 72.945312 34.113281 73.003906 35.304688 73.003906 36.5 Z M 73.003906 36.5 " fill-opacity="1" fill-rule="nonzero"/></g><path fill="#cdbe78" d="M 20.03125 43.980469 C 18.753906 44.71875 18.316406 46.351562 19.054688 47.628906 C 19.792969 48.90625 21.425781 49.34375 22.703125 48.609375 Z M 54.785156 29.179688 C 55.167969 27.753906 54.324219 26.289062 52.898438 25.910156 L 29.679688 19.6875 C 28.253906 19.304688 26.789062 20.152344 26.410156 21.578125 C 26.027344 23 26.871094 24.464844 28.296875 24.847656 L 48.9375 30.378906 L 43.40625 51.015625 C 43.023438 52.441406 43.871094 53.90625 45.292969 54.289062 C 46.71875 54.667969 48.183594 53.824219 48.566406 52.398438 Z M 22.703125 48.609375 L 53.542969 30.800781 L 50.871094 26.175781 L 20.03125 43.980469 Z M 22.703125 48.609375 " fill-opacity="1" fill-rule="nonzero"/></svg>