<svg xmlns="http://www.w3.org/2000/svg" xmlns:xlink="http://www.w3.org/1999/xlink" width="98" zoomAndPan="magnify" viewBox="0 0 73.5 73.499996" height="98" preserveAspectRatio="xMidYMid meet" version="1.0"><defs><clipPath id="f3169a08a5"><path d="M 3.648438 29 L 67 29 L 67 45 L 3.648438 45 Z M 3.648438 29 " clip-rule="nonzero"/></clipPath><clipPath id="c4c4f27df7"><path d="M 3.648438 33 L 67 33 L 67 49 L 3.648438 49 Z M 3.648438 33 " clip-rule="nonzero"/></clipPath><clipPath id="17bbb549e9"><path d="M 3.648438 38 L 67 38 L 67 54 L 3.648438 54 Z M 3.648438 38 " clip-rule="nonzero"/></clipPath><clipPath id="4575fd01db"><path d="M 28 0.292969 L 67 0.292969 L 67 40 L 28 40 Z M 28 0.292969 " clip-rule="nonzero"/></clipPath><clipPath id="c0715e6cea"><path d="M 16 48 L 41 48 L 41 72.550781 L 16 72.550781 Z M 16 48 " clip-rule="nonzero"/></clipPath></defs><g clip-path="url(#f3169a08a5)"><path stroke-linecap="butt" transform="matrix(0.182991, 0, 0, 0.182991, 3.650171, 0.356782)" fill="none" stroke-linejoin="miter" d="M 337.503085 198.495718 C 337.503085 200.779814 336.393057 203.042563 334.215694 205.305312 C 332.016985 207.568062 328.750941 209.766771 324.502949 211.880094 C 316.006965 216.085392 303.668577 219.90645 288.405692 223.108454 C 257.858575 229.533808 215.634817 233.504293 168.992294 233.504293 C 122.349771 233.504293 80.14736 229.533808 49.600243 223.108454 C 34.337357 219.90645 21.998969 216.085392 13.502986 211.880094 C 9.254994 209.766771 5.98895 207.568062 3.79024 205.305312 C 1.591531 203.042563 0.50285 200.779814 0.50285 198.495718 C 0.50285 196.211621 1.591531 193.948872 3.79024 191.686123 C 5.98895 189.44472 9.254994 187.246011 13.502986 185.132688 C 21.998969 180.906043 34.337357 177.106332 49.600243 173.882981 C 80.14736 167.478973 122.349771 163.508488 168.992294 163.508488 C 215.634817 163.508488 257.858575 167.478973 288.405692 173.882981 C 303.668577 177.106332 316.006965 180.906043 324.502949 185.132688 C 328.750941 187.246011 332.016985 189.44472 334.215694 191.686123 C 336.393057 193.948872 337.503085 196.211621 337.503085 198.495718 Z M 337.503085 198.495718 " stroke="#000000" stroke-width="1" stroke-opacity="1" stroke-miterlimit="4"/></g><g clip-path="url(#c4c4f27df7)"><path stroke-linecap="butt" transform="matrix(0.182991, 0, 0, 0.182991, 3.650171, 0.356782)" fill="none" stroke-linejoin="miter" d="M 337.503085 223.492694 C 337.503085 225.776791 336.393057 228.060887 334.215694 230.302289 C 332.016985 232.565039 328.750941 234.763748 324.502949 236.877071 C 316.006965 241.082369 303.668577 244.903427 288.405692 248.105431 C 257.858575 254.530785 215.634817 258.50127 168.992294 258.50127 C 122.349771 258.50127 80.14736 254.530785 49.600243 248.105431 C 34.337357 244.903427 21.998969 241.082369 13.502986 236.877071 C 9.254994 234.763748 5.98895 232.565039 3.79024 230.302289 C 1.591531 228.060887 0.50285 225.776791 0.50285 223.492694 C 0.50285 221.229945 1.591531 218.945849 3.79024 216.704446 C 5.98895 214.441697 9.254994 212.242988 13.502986 210.129665 C 21.998969 205.90302 34.337357 202.103309 49.600243 198.879958 C 80.14736 192.47595 122.349771 188.505465 168.992294 188.505465 C 215.634817 188.505465 257.858575 192.47595 288.405692 198.879958 C 303.668577 202.103309 316.006965 205.90302 324.502949 210.129665 C 328.750941 212.242988 332.016985 214.441697 334.215694 216.704446 C 336.393057 218.945849 337.503085 221.229945 337.503085 223.492694 Z M 337.503085 223.492694 " stroke="#000000" stroke-width="1" stroke-opacity="1" stroke-miterlimit="4"/></g><g clip-path="url(#17bbb549e9)"><path stroke-linecap="butt" transform="matrix(0.182991, 0, 0, 0.182991, 3.650171, 0.356782)" fill="none" stroke-linejoin="miter" d="M 337.503085 248.489671 C 337.503085 250.773768 336.393057 253.057864 334.215694 255.299266 C 332.016985 257.562016 328.750941 259.760725 324.502949 261.874048 C 316.006965 266.079346 303.668577 269.900404 288.405692 273.102408 C 257.858575 279.527762 215.634817 283.498247 168.992294 283.498247 C 122.349771 283.498247 80.14736 279.527762 49.600243 273.102408 C 34.337357 269.900404 21.998969 266.079346 13.502986 261.874048 C 9.254994 259.760725 5.98895 257.562016 3.79024 255.299266 C 1.591531 253.057864 0.50285 250.773768 0.50285 248.489671 C 0.50285 246.226922 1.591531 243.942826 3.79024 241.701423 C 5.98895 239.438674 9.254994 237.239964 13.502986 235.126642 C 21.998969 230.899997 34.337357 227.100286 49.600243 223.876935 C 80.14736 217.472927 122.349771 213.502442 168.992294 213.502442 C 215.634817 213.502442 257.858575 217.472927 288.405692 223.876935 C 303.668577 227.100286 316.006965 230.899997 324.502949 235.126642 C 328.750941 237.239964 332.016985 239.438674 334.215694 241.701423 C 336.393057 243.942826 337.503085 246.226922 337.503085 248.489671 Z M 337.503085 248.489671 " stroke="#000000" stroke-width="1" stroke-opacity="1" stroke-miterlimit="4"/></g><g clip-path="url(#4575fd01db)"><path stroke-linecap="butt" transform="matrix(0.182991, 0, 0, 0.182991, 3.650171, 0.356782)" fill="none" stroke-linejoin="miter" d="M 252.351128 66.637198 L 252.500555 67.533759 L 253.183649 66.893358 L 300.317146 22.172037 L 272.331633 80.832748 L 271.947392 81.643923 L 272.8653 81.537189 L 337.268271 73.062552 L 280.187215 104.05795 L 279.376041 104.50623 L 280.187215 104.933164 L 337.268271 135.949908 L 272.8653 127.475271 L 271.947392 127.347191 L 272.331633 128.179712 L 300.317146 186.819077 L 253.183649 142.097756 L 252.500555 141.457355 L 252.351128 142.375263 L 240.503714 206.265914 L 228.6563 142.375263 L 228.485526 141.457355 L 227.823779 142.097756 L 180.690281 186.819077 L 208.654449 128.179712 L 209.060036 127.347191 L 208.142128 127.475271 L 143.71781 135.949908 L 200.820213 104.933164 L 201.631387 104.50623 L 200.820213 104.05795 L 143.71781 73.062552 L 208.142128 81.537189 L 209.060036 81.643923 L 208.654449 80.832748 L 180.690281 22.172037 L 227.823779 66.893358 L 228.485526 67.533759 L 228.6563 66.637198 L 240.503714 2.746547 Z M 252.351128 66.637198 " stroke="#000000" stroke-width="1" stroke-opacity="1" stroke-miterlimit="4"/></g><path fill="#d9d9d9" d="M 54.339844 32.746094 L 57.59375 40.992188 L 66.070312 38.394531 L 61.652344 46.082031 L 68.96875 51.089844 L 60.203125 52.429688 L 60.847656 61.269531 L 54.339844 55.253906 L 47.828125 61.269531 L 48.472656 52.429688 L 39.710938 51.089844 L 47.023438 46.082031 L 42.605469 38.394531 L 51.082031 40.992188 Z M 54.339844 32.746094 " fill-opacity="1" fill-rule="nonzero"/><g clip-path="url(#c0715e6cea)"><path fill="#cdbe78" d="M 24.179688 56.371094 L 28.378906 48.667969 L 32.609375 56.371094 L 40.296875 60.585938 L 32.609375 64.800781 L 28.378906 72.503906 L 24.179688 64.800781 L 16.460938 60.585938 Z M 24.179688 56.371094 " fill-opacity="1" fill-rule="nonzero"/></g><path stroke-linecap="butt" transform="matrix(0.182991, 0, 0, 0.182991, 3.650171, 0.356782)" fill-opacity="1" fill="#000000" fill-rule="nonzero" stroke-linejoin="miter" d="M 214.503442 186.498876 C 214.503442 190.576095 214.097855 194.610619 213.308028 198.602451 C 212.5182 202.594283 211.344132 206.458034 209.785823 210.236398 C 208.227515 213.993416 206.306313 217.558314 204.043563 220.952438 C 201.780814 224.325215 199.219211 227.463179 196.337407 230.344983 C 193.455604 233.226786 190.338987 235.788389 186.944862 238.051139 C 183.550738 240.313888 179.985841 242.213744 176.228823 243.772052 C 172.471805 245.330361 168.586707 246.504429 164.594875 247.315603 C 160.603044 248.105431 156.568519 248.489671 152.491301 248.489671 C 148.435429 248.489671 144.400904 248.105431 140.409073 247.315603 C 136.417241 246.504429 132.532143 245.330361 128.775125 243.772052 C 125.018107 242.213744 121.431863 240.313888 118.059086 238.051139 C 114.664961 235.788389 111.548344 233.226786 108.666541 230.344983 C 105.784737 227.463179 103.201788 224.325215 100.939038 220.952438 C 98.697635 217.558314 96.776433 213.993416 95.218125 210.236398 C 93.659816 206.458034 92.485748 202.594283 91.69592 198.602451 C 90.906093 194.610619 90.500506 190.576095 90.500506 186.498876 C 90.500506 182.421658 90.906093 178.387133 91.69592 174.395302 C 92.485748 170.40347 93.659816 166.539719 95.218125 162.782701 C 96.776433 159.004336 98.697635 155.439439 100.939038 152.045315 C 103.201788 148.672537 105.784737 145.534573 108.666541 142.65277 C 111.548344 139.770966 114.664961 137.209363 118.059086 134.946614 C 121.431863 132.683864 125.018107 130.784009 128.775125 129.2257 C 132.532143 127.667392 136.417241 126.493324 140.409073 125.682149 C 144.400904 124.892322 148.435429 124.508081 152.491301 124.508081 C 156.568519 124.508081 160.603044 124.892322 164.594875 125.682149 C 168.586707 126.493324 172.471805 127.667392 176.228823 129.2257 C 179.985841 130.784009 183.550738 132.683864 186.944862 134.946614 C 190.338987 137.209363 193.455604 139.770966 196.337407 142.65277 C 199.219211 145.534573 201.780814 148.672537 204.043563 152.045315 C 206.306313 155.439439 208.227515 159.004336 209.785823 162.782701 C 211.344132 166.539719 212.5182 170.40347 213.308028 174.395302 C 214.097855 178.387133 214.503442 182.421658 214.503442 186.498876 Z M 214.503442 186.498876 " stroke="#000000" stroke-width="1" stroke-opacity="1" stroke-miterlimit="4"/><path fill="#ffffff" d="M 29.636719 32.015625 C 29.636719 32.5 29.589844 32.964844 29.496094 33.414062 C 29.402344 33.863281 29.269531 34.257812 29.097656 34.601562 C 28.925781 34.945312 28.730469 35.210938 28.503906 35.394531 C 28.28125 35.582031 28.046875 35.675781 27.804688 35.675781 C 27.5625 35.675781 27.328125 35.582031 27.105469 35.394531 C 26.878906 35.210938 26.683594 34.945312 26.511719 34.601562 C 26.339844 34.257812 26.207031 33.863281 26.113281 33.414062 C 26.023438 32.964844 25.976562 32.5 25.976562 32.015625 C 25.976562 31.527344 26.023438 31.0625 26.113281 30.613281 C 26.207031 30.164062 26.339844 29.769531 26.511719 29.425781 C 26.683594 29.082031 26.878906 28.820312 27.105469 28.632812 C 27.328125 28.445312 27.5625 28.355469 27.804688 28.355469 C 28.046875 28.355469 28.28125 28.445312 28.503906 28.632812 C 28.730469 28.820312 28.925781 29.082031 29.097656 29.425781 C 29.269531 29.769531 29.402344 30.164062 29.496094 30.613281 C 29.589844 31.0625 29.636719 31.527344 29.636719 32.015625 Z M 29.636719 32.015625 " fill-opacity="1" fill-rule="nonzero"/><path fill="#ffffff" d="M 37.136719 32.015625 C 37.136719 32.5 37.089844 32.964844 37 33.414062 C 36.90625 33.863281 36.773438 34.257812 36.601562 34.601562 C 36.429688 34.945312 36.230469 35.210938 36.007812 35.394531 C 35.785156 35.582031 35.550781 35.675781 35.308594 35.675781 C 35.066406 35.675781 34.832031 35.582031 34.605469 35.394531 C 34.382812 35.210938 34.183594 34.945312 34.011719 34.601562 C 33.84375 34.257812 33.710938 33.863281 33.617188 33.414062 C 33.523438 32.964844 33.476562 32.5 33.476562 32.015625 C 33.476562 31.527344 33.523438 31.0625 33.617188 30.613281 C 33.710938 30.164062 33.84375 29.769531 34.011719 29.425781 C 34.183594 29.082031 34.382812 28.820312 34.605469 28.632812 C 34.832031 28.445312 35.066406 28.355469 35.308594 28.355469 C 35.550781 28.355469 35.785156 28.445312 36.007812 28.632812 C 36.230469 28.820312 36.429688 29.082031 36.601562 29.425781 C 36.773438 29.769531 36.90625 30.164062 37 30.613281 C 37.089844 31.0625 37.136719 31.527344 37.136719 32.015625 Z M 37.136719 32.015625 " fill-opacity="1" fill-rule="nonzero"/></svg>